# vtk DataFile Version 3.0
AFM mesh VTK export
ASCII
DATASET POLYDATA
POINTS 38 float
153.0000000000 43.0000000000 0.0
168.5000000000 51.0000000000 0.0
119.0000000000 40.0000000000 0.0
184.0000000000 59.0000000000 0.0
205.0000000000 83.0000000000 0.0
214.0000000000 153.0000000000 0.0
206.0000000000 168.5000000000 0.0
217.0000000000 119.0000000000 0.0
198.0000000000 184.0000000000 0.0
174.0000000000 205.0000000000 0.0
104.0000000000 214.0000000000 0.0
88.5000000000 206.0000000000 0.0
138.0000000000 217.0000000000 0.0
73.0000000000 198.0000000000 0.0
52.0000000000 174.0000000000 0.0
43.0000000000 104.0000000000 0.0
51.0000000000 88.5000000000 0.0
40.0000000000 138.0000000000 0.0
59.0000000000 73.0000000000 0.0
83.0000000000 52.0000000000 0.0
151.7268127606 100.6300309212 0.0
119.2621567736 68.9926737104 0.0
101.0000000000 46.0000000000 0.0
92.6436300991 95.2322488438 0.0
69.8581829669 135.0790690122 0.0
46.0000000000 156.0000000000 0.0
113.8592773984 128.8008731851 0.0
93.8640645051 165.2825337567 0.0
119.2757788618 98.3353802884 0.0
122.6702828052 161.7157290113 0.0
147.8426994135 145.9280941414 0.0
188.8922133494 128.7667386840 0.0
211.0000000000 101.0000000000 0.0
203.9445295538 138.7408139659 0.0
169.0030943090 173.5876720528 0.0
156.0000000000 211.0000000000 0.0
141.6314891435 182.5569798380 0.0
116.8430024748 186.4563221820 0.0
POLYGONS 50 200
3 0 1 2
3 1 3 4
3 5 6 7
3 6 8 9
3 10 11 12
3 11 13 14
3 15 16 17
3 16 18 19
3 1 4 20
3 1 20 21
3 19 22 21
3 22 2 21
3 21 2 1
3 19 21 23
3 19 23 16
3 16 23 24
3 14 25 24
3 25 17 24
3 24 17 16
3 24 23 26
3 24 26 27
3 26 23 28
3 28 23 21
3 28 21 20
3 28 20 26
3 24 27 14
3 14 27 11
3 27 26 29
3 29 26 30
3 30 26 20
3 30 20 31
3 4 32 31
3 32 7 31
3 31 7 33
3 31 33 6
3 6 33 7
3 31 20 4
3 30 31 34
3 9 35 34
3 34 31 6
3 34 6 9
3 30 34 36
3 35 12 36
3 36 34 35
3 36 12 37
3 36 37 29
3 36 29 30
3 29 37 27
3 27 37 11
3 11 37 12
