# AFM mesh OBJ export
v 153.0000000000 43.0000000000 0.0
v 168.5000000000 51.0000000000 0.0
v 119.0000000000 40.0000000000 0.0
v 184.0000000000 59.0000000000 0.0
v 205.0000000000 83.0000000000 0.0
v 214.0000000000 153.0000000000 0.0
v 206.0000000000 168.5000000000 0.0
v 217.0000000000 119.0000000000 0.0
v 198.0000000000 184.0000000000 0.0
v 174.0000000000 205.0000000000 0.0
v 104.0000000000 214.0000000000 0.0
v 88.5000000000 206.0000000000 0.0
v 138.0000000000 217.0000000000 0.0
v 73.0000000000 198.0000000000 0.0
v 52.0000000000 174.0000000000 0.0
v 43.0000000000 104.0000000000 0.0
v 51.0000000000 88.5000000000 0.0
v 40.0000000000 138.0000000000 0.0
v 59.0000000000 73.0000000000 0.0
v 83.0000000000 52.0000000000 0.0
v 151.7268127606 100.6300309212 0.0
v 119.2621567736 68.9926737104 0.0
v 101.0000000000 46.0000000000 0.0
v 92.6436300991 95.2322488438 0.0
v 69.8581829669 135.0790690122 0.0
v 46.0000000000 156.0000000000 0.0
v 113.8592773984 128.8008731851 0.0
v 93.8640645051 165.2825337567 0.0
v 119.2757788618 98.3353802884 0.0
v 122.6702828052 161.7157290113 0.0
v 147.8426994135 145.9280941414 0.0
v 188.8922133494 128.7667386840 0.0
v 211.0000000000 101.0000000000 0.0
v 203.9445295538 138.7408139659 0.0
v 169.0030943090 173.5876720528 0.0
v 156.0000000000 211.0000000000 0.0
v 141.6314891435 182.5569798380 0.0
v 116.8430024748 186.4563221820 0.0
f 1 2 3
f 2 4 5
f 6 7 8
f 7 9 10
f 11 12 13
f 12 14 15
f 16 17 18
f 17 19 20
f 2 5 21
f 2 21 22
f 20 23 22
f 23 3 22
f 22 3 2
f 20 22 24
f 20 24 17
f 17 24 25
f 15 26 25
f 26 18 25
f 25 18 17
f 25 24 27
f 25 27 28
f 27 24 29
f 29 24 22
f 29 22 21
f 29 21 27
f 25 28 15
f 15 28 12
f 28 27 30
f 30 27 31
f 31 27 21
f 31 21 32
f 5 33 32
f 33 8 32
f 32 8 34
f 32 34 7
f 7 34 8
f 32 21 5
f 31 32 35
f 10 36 35
f 35 32 7
f 35 7 10
f 31 35 37
f 36 13 37
f 37 35 36
f 37 13 38
f 37 38 30
f 37 30 31
f 30 38 28
f 28 38 12
f 12 38 13
