# vtk DataFile Version 3.0
AFM mesh VTK export
ASCII
DATASET POLYDATA
POINTS 70 float
221.0000000000 120.0000000000 0.0
221.0000000000 147.5000000000 0.0
188.8000000000 120.0000000000 0.0
221.0000000000 175.0000000000 0.0
280.0000000000 175.0000000000 0.0
280.0000000000 147.5000000000 0.0
312.2000000000 120.0000000000 0.0
280.0000000000 120.0000000000 0.0
280.0000000000 381.0000000000 0.0
280.0000000000 353.5000000000 0.0
312.2000000000 381.0000000000 0.0
280.0000000000 326.0000000000 0.0
221.0000000000 326.0000000000 0.0
221.0000000000 353.5000000000 0.0
188.8000000000 381.0000000000 0.0
221.0000000000 381.0000000000 0.0
221.0000000000 230.0000000000 0.0
250.5000000000 230.0000000000 0.0
250.5000000000 271.0000000000 0.0
280.0000000000 230.0000000000 0.0
280.0000000000 271.0000000000 0.0
221.0000000000 271.0000000000 0.0
344.4000000000 120.0000000000 0.0
376.6000000000 120.0000000000 0.0
408.8000000000 120.0000000000 0.0
441.0000000000 152.6250000000 0.0
441.0000000000 120.0000000000 0.0
441.0000000000 381.0000000000 0.0
408.8000000000 381.0000000000 0.0
441.0000000000 348.3750000000 0.0
376.6000000000 381.0000000000 0.0
344.4000000000 381.0000000000 0.0
92.2000000000 381.0000000000 0.0
60.0000000000 381.0000000000 0.0
60.0000000000 348.3750000000 0.0
60.0000000000 120.0000000000 0.0
92.2000000000 120.0000000000 0.0
60.0000000000 152.6250000000 0.0
124.4000000000 120.0000000000 0.0
156.6000000000 120.0000000000 0.0
156.6000000000 381.0000000000 0.0
124.4000000000 381.0000000000 0.0
441.0000000000 185.2500000000 0.0
441.0000000000 315.7500000000 0.0
60.0000000000 315.7500000000 0.0
60.0000000000 185.2500000000 0.0
324.0586698307 253.2099632805 0.0
280.0000000000 202.5000000000 0.0
280.0000000000 298.5000000000 0.0
176.9413301693 253.2099632805 0.0
221.0000000000 202.5000000000 0.0
221.0000000000 298.5000000000 0.0
158.6530102209 182.9110610596 0.0
160.9180832129 322.1513779288 0.0
342.3469897791 182.9110610596 0.0
401.1904850136 230.1178289356 0.0
441.0000000000 217.8750000000 0.0
441.0000000000 250.5000000000 0.0
441.0000000000 283.1250000000 0.0
340.0819167871 322.1513779288 0.0
388.9755702409 288.5282759335 0.0
386.6466689215 326.8526734245 0.0
99.8095149864 230.1178289356 0.0
60.0000000000 283.1250000000 0.0
60.0000000000 250.5000000000 0.0
60.0000000000 217.8750000000 0.0
110.7293292601 179.5672531365 0.0
112.0244297591 288.5282759335 0.0
114.3533310785 326.8526734245 0.0
390.2706707399 179.5672531365 0.0
POLYGONS 82 328
3 0 1 2
3 1 3 2
3 4 5 6
3 5 7 6
3 8 9 10
3 9 11 10
3 12 13 14
3 13 15 14
3 16 17 18
3 17 19 18
3 20 18 19
3 18 21 16
3 6 22 4
3 23 24 25
3 24 26 25
3 27 28 29
3 28 30 29
3 31 10 11
3 32 33 34
3 35 36 37
3 36 38 37
3 39 2 3
3 14 40 12
3 41 32 34
3 25 42 23
3 43 29 30
3 34 44 41
3 45 37 38
3 20 19 46
3 19 47 46
3 48 20 46
3 16 21 49
3 50 16 49
3 21 51 49
3 50 49 52
3 3 50 52
3 38 39 52
3 49 51 53
3 51 12 53
3 40 41 53
3 46 47 54
3 47 4 54
3 22 23 54
3 46 54 55
3 42 56 55
3 56 57 55
3 57 58 55
3 48 46 59
3 11 48 59
3 30 31 59
3 59 46 60
3 58 43 60
3 59 60 61
3 59 61 30
3 61 60 43
3 61 43 30
3 52 49 62
3 63 64 62
3 64 65 62
3 65 45 62
3 52 62 66
3 66 62 45
3 66 45 38
3 49 53 67
3 44 63 67
3 67 53 68
3 68 53 41
3 67 68 44
3 44 68 41
3 46 55 60
3 60 55 58
3 55 54 69
3 55 69 42
3 42 69 23
3 52 66 38
3 69 54 23
3 62 49 67
3 62 67 63
3 3 52 39
3 53 12 40
3 54 4 22
3 11 59 31
