# AFM mesh OBJ export
v 221.0000000000 120.0000000000 0.0
v 221.0000000000 147.5000000000 0.0
v 188.8000000000 120.0000000000 0.0
v 221.0000000000 175.0000000000 0.0
v 280.0000000000 175.0000000000 0.0
v 280.0000000000 147.5000000000 0.0
v 312.2000000000 120.0000000000 0.0
v 280.0000000000 120.0000000000 0.0
v 280.0000000000 381.0000000000 0.0
v 280.0000000000 353.5000000000 0.0
v 312.2000000000 381.0000000000 0.0
v 280.0000000000 326.0000000000 0.0
v 221.0000000000 326.0000000000 0.0
v 221.0000000000 353.5000000000 0.0
v 188.8000000000 381.0000000000 0.0
v 221.0000000000 381.0000000000 0.0
v 221.0000000000 230.0000000000 0.0
v 250.5000000000 230.0000000000 0.0
v 250.5000000000 271.0000000000 0.0
v 280.0000000000 230.0000000000 0.0
v 280.0000000000 271.0000000000 0.0
v 221.0000000000 271.0000000000 0.0
v 344.4000000000 120.0000000000 0.0
v 376.6000000000 120.0000000000 0.0
v 408.8000000000 120.0000000000 0.0
v 441.0000000000 152.6250000000 0.0
v 441.0000000000 120.0000000000 0.0
v 441.0000000000 381.0000000000 0.0
v 408.8000000000 381.0000000000 0.0
v 441.0000000000 348.3750000000 0.0
v 376.6000000000 381.0000000000 0.0
v 344.4000000000 381.0000000000 0.0
v 92.2000000000 381.0000000000 0.0
v 60.0000000000 381.0000000000 0.0
v 60.0000000000 348.3750000000 0.0
v 60.0000000000 120.0000000000 0.0
v 92.2000000000 120.0000000000 0.0
v 60.0000000000 152.6250000000 0.0
v 124.4000000000 120.0000000000 0.0
v 156.6000000000 120.0000000000 0.0
v 156.6000000000 381.0000000000 0.0
v 124.4000000000 381.0000000000 0.0
v 441.0000000000 185.2500000000 0.0
v 441.0000000000 315.7500000000 0.0
v 60.0000000000 315.7500000000 0.0
v 60.0000000000 185.2500000000 0.0
v 324.0586698307 253.2099632805 0.0
v 280.0000000000 202.5000000000 0.0
v 280.0000000000 298.5000000000 0.0
v 176.9413301693 253.2099632805 0.0
v 221.0000000000 202.5000000000 0.0
v 221.0000000000 298.5000000000 0.0
v 158.6530102209 182.9110610596 0.0
v 160.9180832129 322.1513779288 0.0
v 342.3469897791 182.9110610596 0.0
v 401.1904850136 230.1178289356 0.0
v 441.0000000000 217.8750000000 0.0
v 441.0000000000 250.5000000000 0.0
v 441.0000000000 283.1250000000 0.0
v 340.0819167871 322.1513779288 0.0
v 388.9755702409 288.5282759335 0.0
v 386.6466689215 326.8526734245 0.0
v 99.8095149864 230.1178289356 0.0
v 60.0000000000 283.1250000000 0.0
v 60.0000000000 250.5000000000 0.0
v 60.0000000000 217.8750000000 0.0
v 110.7293292601 179.5672531365 0.0
v 112.0244297591 288.5282759335 0.0
v 114.3533310785 326.8526734245 0.0
v 390.2706707399 179.5672531365 0.0
f 1 2 3
f 2 4 3
f 5 6 7
f 6 8 7
f 9 10 11
f 10 12 11
f 13 14 15
f 14 16 15
f 17 18 19
f 18 20 19
f 21 19 20
f 19 22 17
f 7 23 5
f 24 25 26
f 25 27 26
f 28 29 30
f 29 31 30
f 32 11 12
f 33 34 35
f 36 37 38
f 37 39 38
f 40 3 4
f 15 41 13
f 42 33 35
f 26 43 24
f 44 30 31
f 35 45 42
f 46 38 39
f 21 20 47
f 20 48 47
f 49 21 47
f 17 22 50
f 51 17 50
f 22 52 50
f 51 50 53
f 4 51 53
f 39 40 53
f 50 52 54
f 52 13 54
f 41 42 54
f 47 48 55
f 48 5 55
f 23 24 55
f 47 55 56
f 43 57 56
f 57 58 56
f 58 59 56
f 49 47 60
f 12 49 60
f 31 32 60
f 60 47 61
f 59 44 61
f 60 61 62
f 60 62 31
f 62 61 44
f 62 44 31
f 53 50 63
f 64 65 63
f 65 66 63
f 66 46 63
f 53 63 67
f 67 63 46
f 67 46 39
f 50 54 68
f 45 64 68
f 68 54 69
f 69 54 42
f 68 69 45
f 45 69 42
f 47 56 61
f 61 56 59
f 56 55 70
f 56 70 43
f 43 70 24
f 53 67 39
f 70 55 24
f 63 50 68
f 63 68 64
f 4 53 40
f 54 13 41
f 55 5 23
f 12 60 32
