ply
format ascii 1.0
element vertex 38
property float x
property float y
property float z
element face 48
property list uchar int vertex_indices
end_header
209.0000000000 48.0000000000 0.0
209.0000000000 67.0000000000 0.0
182.1666666667 48.0000000000 0.0
209.0000000000 86.0000000000 0.0
185.0000000000 105.0000000000 0.0
209.0000000000 105.0000000000 0.0
113.0000000000 209.0000000000 0.0
91.3333333333 209.0000000000 0.0
113.0000000000 183.0000000000 0.0
69.6666666667 209.0000000000 0.0
48.0000000000 209.0000000000 0.0
48.0000000000 182.1666666667 0.0
161.0000000000 105.0000000000 0.0
137.0000000000 105.0000000000 0.0
155.3333333333 48.0000000000 0.0
113.0000000000 105.0000000000 0.0
128.5000000000 48.0000000000 0.0
113.0000000000 157.0000000000 0.0
48.0000000000 155.3333333333 0.0
76.7903702434 164.4317735963 0.0
113.0000000000 131.0000000000 0.0
48.0000000000 74.8333333333 0.0
48.0000000000 48.0000000000 0.0
71.3928187168 61.1321538387 0.0
64.8191955976 185.2042461337 0.0
81.0380442233 131.2556571765 0.0
60.0789726274 124.7510498023 0.0
48.0000000000 128.5000000000 0.0
48.0000000000 101.6666666667 0.0
70.8224161631 76.9961459962 0.0
74.8333333333 48.0000000000 0.0
101.6666666667 48.0000000000 0.0
65.3190062543 89.7714895903 0.0
84.8798796959 70.5584738019 0.0
84.2720921947 87.9986620633 0.0
95.9928673022 77.9938658712 0.0
176.8750000000 67.0000000000 0.0
75.3100741304 106.8226797672 0.0
3 0 1 2
3 1 3 4
3 3 5 4
3 6 7 8
3 7 9 8
3 9 10 11
3 4 12 1
3 12 13 14
3 13 15 16
3 17 8 9
3 16 14 13
3 11 18 19
3 20 17 19
3 21 22 23
3 11 19 24
3 24 19 9
3 11 24 9
3 19 18 25
3 15 20 25
3 19 25 20
3 25 18 26
3 26 18 27
3 26 27 28
3 21 23 29
3 23 22 30
3 23 30 31
3 21 29 32
3 21 32 28
3 29 23 33
3 29 33 34
3 32 29 34
3 33 23 31
3 34 33 35
3 35 33 31
3 34 35 15
3 15 35 31
3 31 16 15
3 14 2 36
3 36 2 1
3 14 36 12
3 36 1 12
3 32 34 37
3 25 26 37
3 28 32 37
3 34 15 37
3 37 26 28
3 25 37 15
3 9 19 17
