# AFM mesh OBJ export
v 209.0000000000 48.0000000000 0.0
v 209.0000000000 67.0000000000 0.0
v 182.1666666667 48.0000000000 0.0
v 209.0000000000 86.0000000000 0.0
v 185.0000000000 105.0000000000 0.0
v 209.0000000000 105.0000000000 0.0
v 113.0000000000 209.0000000000 0.0
v 91.3333333333 209.0000000000 0.0
v 113.0000000000 183.0000000000 0.0
v 69.6666666667 209.0000000000 0.0
v 48.0000000000 209.0000000000 0.0
v 48.0000000000 182.1666666667 0.0
v 161.0000000000 105.0000000000 0.0
v 137.0000000000 105.0000000000 0.0
v 155.3333333333 48.0000000000 0.0
v 113.0000000000 105.0000000000 0.0
v 128.5000000000 48.0000000000 0.0
v 113.0000000000 157.0000000000 0.0
v 48.0000000000 155.3333333333 0.0
v 76.7903702434 164.4317735963 0.0
v 113.0000000000 131.0000000000 0.0
v 48.0000000000 74.8333333333 0.0
v 48.0000000000 48.0000000000 0.0
v 71.3928187168 61.1321538387 0.0
v 64.8191955976 185.2042461337 0.0
v 81.0380442233 131.2556571765 0.0
v 60.0789726274 124.7510498023 0.0
v 48.0000000000 128.5000000000 0.0
v 48.0000000000 101.6666666667 0.0
v 70.8224161631 76.9961459962 0.0
v 74.8333333333 48.0000000000 0.0
v 101.6666666667 48.0000000000 0.0
v 65.3190062543 89.7714895903 0.0
v 84.8798796959 70.5584738019 0.0
v 84.2720921947 87.9986620633 0.0
v 95.9928673022 77.9938658712 0.0
v 176.8750000000 67.0000000000 0.0
v 75.3100741304 106.8226797672 0.0
f 1 2 3
f 2 4 5
f 4 6 5
f 7 8 9
f 8 10 9
f 10 11 12
f 5 13 2
f 13 14 15
f 14 16 17
f 18 9 10
f 17 15 14
f 12 19 20
f 21 18 20
f 22 23 24
f 12 20 25
f 25 20 10
f 12 25 10
f 20 19 26
f 16 21 26
f 20 26 21
f 26 19 27
f 27 19 28
f 27 28 29
f 22 24 30
f 24 23 31
f 24 31 32
f 22 30 33
f 22 33 29
f 30 24 34
f 30 34 35
f 33 30 35
f 34 24 32
f 35 34 36
f 36 34 32
f 35 36 16
f 16 36 32
f 32 17 16
f 15 3 37
f 37 3 2
f 15 37 13
f 37 2 13
f 33 35 38
f 26 27 38
f 29 33 38
f 35 16 38
f 38 27 29
f 26 38 16
f 10 20 18
