# vtk DataFile Version 3.0
AFM mesh VTK export
ASCII
DATASET POLYDATA
POINTS 147 float
311.0000000000 617.0000000000 0.0
337.0000000000 617.0000000000 0.0
371.6666666667 645.6666666667 0.0
363.0000000000 617.0000000000 0.0
97.0000000000 617.0000000000 0.0
123.6666666667 617.0000000000 0.0
91.3333333333 645.6666666667 0.0
150.3333333333 617.0000000000 0.0
126.4000000000 144.0000000000 0.0
148.6000000000 125.0000000000 0.0
145.3333333333 183.3333333333 0.0
170.8000000000 106.0000000000 0.0
193.0000000000 87.0000000000 0.0
223.6666666667 87.0000000000 0.0
82.0000000000 182.0000000000 0.0
104.2000000000 163.0000000000 0.0
113.6666666667 182.6666666667 0.0
80.0000000000 703.0000000000 0.0
85.6666666667 674.3333333333 0.0
114.3333333333 703.0000000000 0.0
380.3333333333 674.3333333333 0.0
389.0000000000 703.0000000000 0.0
354.6666666667 703.0000000000 0.0
254.3333333333 87.0000000000 0.0
285.0000000000 120.1250000000 0.0
285.0000000000 87.0000000000 0.0
177.0000000000 184.0000000000 0.0
285.0000000000 153.2500000000 0.0
254.1044011803 137.0952586175 0.0
285.0000000000 186.3750000000 0.0
264.8598071016 166.0521188627 0.0
285.0000000000 219.5000000000 0.0
258.4803518602 205.3267403391 0.0
285.0000000000 252.6250000000 0.0
265.5674803328 243.2179271821 0.0
285.0000000000 285.7500000000 0.0
269.7641331740 274.3212622295 0.0
285.0000000000 318.8750000000 0.0
269.7278546797 297.4767497875 0.0
285.0000000000 352.0000000000 0.0
266.6798320014 330.4947631711 0.0
285.0000000000 385.1250000000 0.0
264.8503554259 365.5079289940 0.0
285.0000000000 418.2500000000 0.0
267.1788694562 404.2858145827 0.0
285.0000000000 451.3750000000 0.0
267.9616716041 428.9931210313 0.0
285.0000000000 484.5000000000 0.0
264.4068285139 462.5045136255 0.0
285.0000000000 517.6250000000 0.0
262.4793530079 496.8883850645 0.0
285.0000000000 550.7500000000 0.0
259.9729514879 536.6636713959 0.0
285.0000000000 583.8750000000 0.0
262.7597685239 571.5988103943 0.0
285.0000000000 617.0000000000 0.0
264.2449909698 608.1550447994 0.0
263.0772933047 153.4951475123 0.0
243.0628432255 179.5738857253 0.0
251.6754513344 228.7900223963 0.0
262.6046037863 261.8598404903 0.0
268.1840526635 285.7970561425 0.0
262.3792988458 311.3466924437 0.0
259.5804604265 346.1703142351 0.0
255.6309967393 385.6365105614 0.0
266.1137618184 416.7974228981 0.0
259.4809233100 442.9162344672 0.0
257.2786004997 477.7479019959 0.0
246.2756974675 515.8057156754 0.0
254.3341220238 555.8058786049 0.0
254.9179072634 590.8770449450 0.0
268.4234201457 635.0545156741 0.0
228.1183021088 614.2131410559 0.0
229.8982189050 656.2544296884 0.0
191.2401768516 638.1758692594 0.0
177.0000000000 617.0000000000 0.0
266.3759110045 674.6629780521 0.0
294.7576219165 658.8532258032 0.0
198.0331475942 671.4014620244 0.0
164.3087112070 653.6651773153 0.0
237.1024725165 682.9359009501 0.0
220.5299261956 678.2837903974 0.0
217.3333333333 703.0000000000 0.0
251.6666666667 703.0000000000 0.0
297.2132920654 684.4936386895 0.0
307.7164878241 679.5393832205 0.0
170.9005713034 681.4428616947 0.0
139.1455983760 668.2709684100 0.0
286.0000000000 703.0000000000 0.0
320.3333333333 703.0000000000 0.0
308.3841000979 688.8436326328 0.0
318.1394830492 663.3761117128 0.0
192.3037279325 689.6595422926 0.0
183.0000000000 703.0000000000 0.0
148.6666666667 703.0000000000 0.0
136.2817897482 646.1148475092 0.0
177.0000000000 583.6923076923 0.0
205.0160548132 592.0426083536 0.0
208.4207884899 568.6832513272 0.0
196.1701127930 547.6834588785 0.0
177.0000000000 550.3846153846 0.0
177.0000000000 517.0769230769 0.0
177.0000000000 417.1538461538 0.0
177.0000000000 383.8461538462 0.0
208.7633381063 394.8264155203 0.0
212.8576269380 427.2657204606 0.0
199.8876525275 367.0281964892 0.0
198.5054716023 452.6837092275 0.0
177.0000000000 450.4615384615 0.0
177.0000000000 483.7692307692 0.0
187.8609714166 351.1289063623 0.0
177.0000000000 350.5384615385 0.0
177.0000000000 317.2307692308 0.0
177.0000000000 283.9230769231 0.0
177.0000000000 250.6153846154 0.0
214.0464358488 264.1877442505 0.0
214.0374958780 300.7878061428 0.0
249.4068550820 285.8835284550 0.0
242.6389485367 324.2940410903 0.0
208.9212299107 337.1211940298 0.0
194.0712921912 309.7265296098 0.0
240.0497871395 358.7679231418 0.0
217.8633668070 368.4174720810 0.0
244.9849348308 253.6961649584 0.0
208.9321626887 236.0592796543 0.0
229.2526100477 238.9556828584 0.0
197.1110120015 214.3305141690 0.0
177.0000000000 217.3076923077 0.0
234.6641193714 576.6476755921 0.0
244.9833671525 415.6880340944 0.0
235.8891917615 456.1084643705 0.0
233.1523047694 384.6220691344 0.0
229.3083059034 543.2744420569 0.0
199.1566215124 502.1306252919 0.0
211.8333146529 481.4812482371 0.0
239.1553810802 488.8835309619 0.0
221.8060667455 505.4902780751 0.0
208.2995059920 522.9205407418 0.0
226.4025233423 521.8694952214 0.0
123.3733054313 679.9711807210 0.0
339.9900456658 672.8901035893 0.0
335.1883366806 649.6713975542 0.0
228.7476498102 212.5927022568 0.0
214.9864028836 185.6019857682 0.0
219.6219574295 151.1140409038 0.0
248.7771749662 157.4888329163 0.0
225.6577293112 172.0961928357 0.0
POLYGONS 231 924
3 0 1 2
3 1 3 2
3 4 5 6
3 5 7 6
3 8 9 10
3 11 12 13
3 14 15 16
3 16 15 8
3 9 11 10
3 17 18 19
3 18 6 19
3 20 21 22
3 2 20 22
3 13 23 24
3 23 25 24
3 26 10 11
3 10 16 8
3 24 27 28
3 27 29 30
3 29 31 32
3 31 33 34
3 33 35 36
3 35 37 38
3 37 39 40
3 39 41 42
3 41 43 44
3 43 45 46
3 45 47 48
3 47 49 50
3 49 51 52
3 51 53 54
3 53 55 56
3 24 28 13
3 28 27 57
3 57 27 30
3 30 29 58
3 58 29 32
3 32 31 59
3 59 31 34
3 34 33 60
3 60 33 36
3 36 35 61
3 61 35 38
3 38 37 62
3 62 37 40
3 40 39 63
3 63 39 42
3 42 41 64
3 64 41 44
3 44 43 65
3 65 43 46
3 46 45 66
3 66 45 48
3 48 47 67
3 67 47 50
3 50 49 68
3 68 49 52
3 52 51 69
3 69 51 54
3 54 53 70
3 70 53 56
3 56 55 71
3 55 0 71
3 56 71 72
3 70 56 72
3 72 71 73
3 72 73 74
3 7 75 74
3 74 75 72
3 73 71 76
3 76 71 77
3 74 73 78
3 74 78 79
3 73 76 80
3 73 80 81
3 81 80 82
3 82 80 83
3 81 82 78
3 81 78 73
3 83 80 76
3 76 77 84
3 84 77 85
3 77 71 0
3 74 79 7
3 79 78 86
3 79 86 87
3 76 84 88
3 88 84 89
3 84 85 90
3 90 85 89
3 90 89 84
3 85 77 91
3 85 91 89
3 86 78 92
3 92 78 82
3 86 92 93
3 93 92 82
3 86 93 94
3 86 94 87
3 79 87 95
3 79 95 7
3 95 87 6
3 75 96 97
3 97 96 98
3 98 96 99
3 99 96 100
3 99 100 101
3 102 103 104
3 102 104 105
3 104 103 106
3 102 105 107
3 102 107 108
3 108 107 109
3 106 103 110
3 110 103 111
3 110 111 112
3 113 114 115
3 113 115 116
3 116 115 117
3 60 36 117
3 36 61 117
3 61 38 117
3 38 62 117
3 116 117 118
3 62 40 118
3 40 63 118
3 62 118 117
3 116 118 119
3 106 110 119
3 119 110 112
3 119 112 120
3 120 112 113
3 119 120 116
3 116 120 113
3 119 118 121
3 63 42 121
3 42 64 121
3 63 121 118
3 119 121 122
3 119 122 106
3 106 122 104
3 117 115 123
3 59 34 123
3 34 60 123
3 123 60 117
3 115 114 124
3 115 124 125
3 115 125 123
3 123 125 59
3 124 114 126
3 126 114 127
3 126 127 26
3 97 98 128
3 69 54 128
3 54 70 128
3 128 70 72
3 105 104 129
3 64 44 129
3 44 65 129
3 65 46 129
3 46 66 129
3 105 129 130
3 66 48 130
3 48 67 130
3 107 105 130
3 66 130 129
3 129 104 131
3 122 121 131
3 122 131 104
3 129 131 64
3 64 131 121
3 128 98 132
3 68 52 132
3 52 69 132
3 98 99 132
3 132 69 128
3 75 97 72
3 72 97 128
3 101 109 133
3 133 109 134
3 134 109 107
3 134 107 130
3 134 130 135
3 67 50 135
3 50 68 135
3 67 135 130
3 134 135 136
3 136 135 68
3 134 136 133
3 101 133 137
3 133 136 137
3 101 137 99
3 99 137 132
3 132 137 138
3 138 137 136
3 132 138 68
3 68 138 136
3 94 19 139
3 139 19 6
3 94 139 87
3 87 139 6
3 22 89 140
3 88 83 76
3 140 89 91
3 22 140 2
3 91 77 0
3 140 91 141
3 91 0 141
3 140 141 2
3 2 141 0
3 59 125 142
3 58 32 142
3 32 59 142
3 125 124 142
3 124 126 142
3 142 126 143
3 142 143 58
3 143 126 26
3 95 6 7
3 11 13 144
3 144 13 28
3 144 28 145
3 28 57 145
3 57 30 145
3 30 58 145
3 145 58 144
3 11 144 26
3 26 144 143
3 143 144 146
3 143 146 58
3 146 144 58
