# AFM mesh OBJ export
v 311.0000000000 617.0000000000 0.0
v 337.0000000000 617.0000000000 0.0
v 371.6666666667 645.6666666667 0.0
v 363.0000000000 617.0000000000 0.0
v 97.0000000000 617.0000000000 0.0
v 123.6666666667 617.0000000000 0.0
v 91.3333333333 645.6666666667 0.0
v 150.3333333333 617.0000000000 0.0
v 126.4000000000 144.0000000000 0.0
v 148.6000000000 125.0000000000 0.0
v 145.3333333333 183.3333333333 0.0
v 170.8000000000 106.0000000000 0.0
v 193.0000000000 87.0000000000 0.0
v 223.6666666667 87.0000000000 0.0
v 82.0000000000 182.0000000000 0.0
v 104.2000000000 163.0000000000 0.0
v 113.6666666667 182.6666666667 0.0
v 80.0000000000 703.0000000000 0.0
v 85.6666666667 674.3333333333 0.0
v 114.3333333333 703.0000000000 0.0
v 380.3333333333 674.3333333333 0.0
v 389.0000000000 703.0000000000 0.0
v 354.6666666667 703.0000000000 0.0
v 254.3333333333 87.0000000000 0.0
v 285.0000000000 120.1250000000 0.0
v 285.0000000000 87.0000000000 0.0
v 177.0000000000 184.0000000000 0.0
v 285.0000000000 153.2500000000 0.0
v 254.1044011803 137.0952586175 0.0
v 285.0000000000 186.3750000000 0.0
v 264.8598071016 166.0521188627 0.0
v 285.0000000000 219.5000000000 0.0
v 258.4803518602 205.3267403391 0.0
v 285.0000000000 252.6250000000 0.0
v 265.5674803328 243.2179271821 0.0
v 285.0000000000 285.7500000000 0.0
v 269.7641331740 274.3212622295 0.0
v 285.0000000000 318.8750000000 0.0
v 269.7278546797 297.4767497875 0.0
v 285.0000000000 352.0000000000 0.0
v 266.6798320014 330.4947631711 0.0
v 285.0000000000 385.1250000000 0.0
v 264.8503554259 365.5079289940 0.0
v 285.0000000000 418.2500000000 0.0
v 267.1788694562 404.2858145827 0.0
v 285.0000000000 451.3750000000 0.0
v 267.9616716041 428.9931210313 0.0
v 285.0000000000 484.5000000000 0.0
v 264.4068285139 462.5045136255 0.0
v 285.0000000000 517.6250000000 0.0
v 262.4793530079 496.8883850645 0.0
v 285.0000000000 550.7500000000 0.0
v 259.9729514879 536.6636713959 0.0
v 285.0000000000 583.8750000000 0.0
v 262.7597685239 571.5988103943 0.0
v 285.0000000000 617.0000000000 0.0
v 264.2449909698 608.1550447994 0.0
v 263.0772933047 153.4951475123 0.0
v 243.0628432255 179.5738857253 0.0
v 251.6754513344 228.7900223963 0.0
v 262.6046037863 261.8598404903 0.0
v 268.1840526635 285.7970561425 0.0
v 262.3792988458 311.3466924437 0.0
v 259.5804604265 346.1703142351 0.0
v 255.6309967393 385.6365105614 0.0
v 266.1137618184 416.7974228981 0.0
v 259.4809233100 442.9162344672 0.0
v 257.2786004997 477.7479019959 0.0
v 246.2756974675 515.8057156754 0.0
v 254.3341220238 555.8058786049 0.0
v 254.9179072634 590.8770449450 0.0
v 268.4234201457 635.0545156741 0.0
v 228.1183021088 614.2131410559 0.0
v 229.8982189050 656.2544296884 0.0
v 191.2401768516 638.1758692594 0.0
v 177.0000000000 617.0000000000 0.0
v 266.3759110045 674.6629780521 0.0
v 294.7576219165 658.8532258032 0.0
v 198.0331475942 671.4014620244 0.0
v 164.3087112070 653.6651773153 0.0
v 237.1024725165 682.9359009501 0.0
v 220.5299261956 678.2837903974 0.0
v 217.3333333333 703.0000000000 0.0
v 251.6666666667 703.0000000000 0.0
v 297.2132920654 684.4936386895 0.0
v 307.7164878241 679.5393832205 0.0
v 170.9005713034 681.4428616947 0.0
v 139.1455983760 668.2709684100 0.0
v 286.0000000000 703.0000000000 0.0
v 320.3333333333 703.0000000000 0.0
v 308.3841000979 688.8436326328 0.0
v 318.1394830492 663.3761117128 0.0
v 192.3037279325 689.6595422926 0.0
v 183.0000000000 703.0000000000 0.0
v 148.6666666667 703.0000000000 0.0
v 136.2817897482 646.1148475092 0.0
v 177.0000000000 583.6923076923 0.0
v 205.0160548132 592.0426083536 0.0
v 208.4207884899 568.6832513272 0.0
v 196.1701127930 547.6834588785 0.0
v 177.0000000000 550.3846153846 0.0
v 177.0000000000 517.0769230769 0.0
v 177.0000000000 417.1538461538 0.0
v 177.0000000000 383.8461538462 0.0
v 208.7633381063 394.8264155203 0.0
v 212.8576269380 427.2657204606 0.0
v 199.8876525275 367.0281964892 0.0
v 198.5054716023 452.6837092275 0.0
v 177.0000000000 450.4615384615 0.0
v 177.0000000000 483.7692307692 0.0
v 187.8609714166 351.1289063623 0.0
v 177.0000000000 350.5384615385 0.0
v 177.0000000000 317.2307692308 0.0
v 177.0000000000 283.9230769231 0.0
v 177.0000000000 250.6153846154 0.0
v 214.0464358488 264.1877442505 0.0
v 214.0374958780 300.7878061428 0.0
v 249.4068550820 285.8835284550 0.0
v 242.6389485367 324.2940410903 0.0
v 208.9212299107 337.1211940298 0.0
v 194.0712921912 309.7265296098 0.0
v 240.0497871395 358.7679231418 0.0
v 217.8633668070 368.4174720810 0.0
v 244.9849348308 253.6961649584 0.0
v 208.9321626887 236.0592796543 0.0
v 229.2526100477 238.9556828584 0.0
v 197.1110120015 214.3305141690 0.0
v 177.0000000000 217.3076923077 0.0
v 234.6641193714 576.6476755921 0.0
v 244.9833671525 415.6880340944 0.0
v 235.8891917615 456.1084643705 0.0
v 233.1523047694 384.6220691344 0.0
v 229.3083059034 543.2744420569 0.0
v 199.1566215124 502.1306252919 0.0
v 211.8333146529 481.4812482371 0.0
v 239.1553810802 488.8835309619 0.0
v 221.8060667455 505.4902780751 0.0
v 208.2995059920 522.9205407418 0.0
v 226.4025233423 521.8694952214 0.0
v 123.3733054313 679.9711807210 0.0
v 339.9900456658 672.8901035893 0.0
v 335.1883366806 649.6713975542 0.0
v 228.7476498102 212.5927022568 0.0
v 214.9864028836 185.6019857682 0.0
v 219.6219574295 151.1140409038 0.0
v 248.7771749662 157.4888329163 0.0
v 225.6577293112 172.0961928357 0.0
f 1 2 3
f 2 4 3
f 5 6 7
f 6 8 7
f 9 10 11
f 12 13 14
f 15 16 17
f 17 16 9
f 10 12 11
f 18 19 20
f 19 7 20
f 21 22 23
f 3 21 23
f 14 24 25
f 24 26 25
f 27 11 12
f 11 17 9
f 25 28 29
f 28 30 31
f 30 32 33
f 32 34 35
f 34 36 37
f 36 38 39
f 38 40 41
f 40 42 43
f 42 44 45
f 44 46 47
f 46 48 49
f 48 50 51
f 50 52 53
f 52 54 55
f 54 56 57
f 25 29 14
f 29 28 58
f 58 28 31
f 31 30 59
f 59 30 33
f 33 32 60
f 60 32 35
f 35 34 61
f 61 34 37
f 37 36 62
f 62 36 39
f 39 38 63
f 63 38 41
f 41 40 64
f 64 40 43
f 43 42 65
f 65 42 45
f 45 44 66
f 66 44 47
f 47 46 67
f 67 46 49
f 49 48 68
f 68 48 51
f 51 50 69
f 69 50 53
f 53 52 70
f 70 52 55
f 55 54 71
f 71 54 57
f 57 56 72
f 56 1 72
f 57 72 73
f 71 57 73
f 73 72 74
f 73 74 75
f 8 76 75
f 75 76 73
f 74 72 77
f 77 72 78
f 75 74 79
f 75 79 80
f 74 77 81
f 74 81 82
f 82 81 83
f 83 81 84
f 82 83 79
f 82 79 74
f 84 81 77
f 77 78 85
f 85 78 86
f 78 72 1
f 75 80 8
f 80 79 87
f 80 87 88
f 77 85 89
f 89 85 90
f 85 86 91
f 91 86 90
f 91 90 85
f 86 78 92
f 86 92 90
f 87 79 93
f 93 79 83
f 87 93 94
f 94 93 83
f 87 94 95
f 87 95 88
f 80 88 96
f 80 96 8
f 96 88 7
f 76 97 98
f 98 97 99
f 99 97 100
f 100 97 101
f 100 101 102
f 103 104 105
f 103 105 106
f 105 104 107
f 103 106 108
f 103 108 109
f 109 108 110
f 107 104 111
f 111 104 112
f 111 112 113
f 114 115 116
f 114 116 117
f 117 116 118
f 61 37 118
f 37 62 118
f 62 39 118
f 39 63 118
f 117 118 119
f 63 41 119
f 41 64 119
f 63 119 118
f 117 119 120
f 107 111 120
f 120 111 113
f 120 113 121
f 121 113 114
f 120 121 117
f 117 121 114
f 120 119 122
f 64 43 122
f 43 65 122
f 64 122 119
f 120 122 123
f 120 123 107
f 107 123 105
f 118 116 124
f 60 35 124
f 35 61 124
f 124 61 118
f 116 115 125
f 116 125 126
f 116 126 124
f 124 126 60
f 125 115 127
f 127 115 128
f 127 128 27
f 98 99 129
f 70 55 129
f 55 71 129
f 129 71 73
f 106 105 130
f 65 45 130
f 45 66 130
f 66 47 130
f 47 67 130
f 106 130 131
f 67 49 131
f 49 68 131
f 108 106 131
f 67 131 130
f 130 105 132
f 123 122 132
f 123 132 105
f 130 132 65
f 65 132 122
f 129 99 133
f 69 53 133
f 53 70 133
f 99 100 133
f 133 70 129
f 76 98 73
f 73 98 129
f 102 110 134
f 134 110 135
f 135 110 108
f 135 108 131
f 135 131 136
f 68 51 136
f 51 69 136
f 68 136 131
f 135 136 137
f 137 136 69
f 135 137 134
f 102 134 138
f 134 137 138
f 102 138 100
f 100 138 133
f 133 138 139
f 139 138 137
f 133 139 69
f 69 139 137
f 95 20 140
f 140 20 7
f 95 140 88
f 88 140 7
f 23 90 141
f 89 84 77
f 141 90 92
f 23 141 3
f 92 78 1
f 141 92 142
f 92 1 142
f 141 142 3
f 3 142 1
f 60 126 143
f 59 33 143
f 33 60 143
f 126 125 143
f 125 127 143
f 143 127 144
f 143 144 59
f 144 127 27
f 96 7 8
f 12 14 145
f 145 14 29
f 145 29 146
f 29 58 146
f 58 31 146
f 31 59 146
f 146 59 145
f 12 145 27
f 27 145 144
f 144 145 147
f 144 147 59
f 147 145 59
