# AFM mesh OBJ export
v 447.0000000000 117.0000000000 0.0
v 460.0000000000 123.0000000000 0.0
v 442.0000000000 119.0000000000 0.0
v 809.0000000000 284.0000000000 0.0
v 818.0000000000 297.0000000000 0.0
v 824.0000000000 319.0000000000 0.0
v 566.0000000000 138.0000000000 0.0
v 583.0000000000 140.0000000000 0.0
v 613.0000000000 154.3333333333 0.0
v 132.0000000000 434.0000000000 0.0
v 126.5000000000 417.0000000000 0.0
v 142.0000000000 451.5000000000 0.0
v 121.0000000000 400.0000000000 0.0
v 118.0000000000 380.0000000000 0.0
v 152.0000000000 469.0000000000 0.0
v 172.0000000000 485.0000000000 0.0
v 422.0000000000 114.0000000000 0.0
v 393.2500000000 114.0000000000 0.0
v 163.0000000000 151.0000000000 0.0
v 181.0000000000 140.0000000000 0.0
v 146.0000000000 168.0000000000 0.0
v 199.0000000000 129.0000000000 0.0
v 228.5000000000 122.5000000000 0.0
v 683.0000000000 582.0000000000 0.0
v 662.0000000000 586.0000000000 0.0
v 704.0000000000 573.0000000000 0.0
v 134.0000000000 187.0000000000 0.0
v 126.5000000000 218.0000000000 0.0
v 823.0000000000 414.0000000000 0.0
v 812.5000000000 436.0000000000 0.0
v 823.3333333333 382.3333333333 0.0
v 802.0000000000 458.0000000000 0.0
v 783.5000000000 486.5000000000 0.0
v 258.0000000000 116.0000000000 0.0
v 282.5000000000 115.0000000000 0.0
v 307.0000000000 114.0000000000 0.0
v 335.7500000000 114.0000000000 0.0
v 509.3333333333 125.6666666667 0.0
v 534.0000000000 127.0000000000 0.0
v 789.6666666667 266.6666666667 0.0
v 751.0000000000 232.0000000000 0.0
v 770.3333333333 249.3333333333 0.0
v 725.0000000000 214.0000000000 0.0
v 765.0000000000 515.0000000000 0.0
v 747.0000000000 535.0000000000 0.0
v 729.0000000000 555.0000000000 0.0
v 275.0000000000 533.0000000000 0.0
v 249.2500000000 521.0000000000 0.0
v 303.6666666667 543.6666666667 0.0
v 197.7500000000 497.0000000000 0.0
v 364.5000000000 114.0000000000 0.0
v 445.0000000000 585.0000000000 0.0
v 417.0000000000 578.3333333333 0.0
v 476.0000000000 585.1428571429 0.0
v 389.0000000000 571.6666666667 0.0
v 361.0000000000 565.0000000000 0.0
v 332.3333333333 554.3333333333 0.0
v 673.0000000000 183.0000000000 0.0
v 699.0000000000 198.5000000000 0.0
v 643.0000000000 168.6666666667 0.0
v 631.0000000000 585.8571428571 0.0
v 507.0000000000 585.2857142857 0.0
v 823.6666666667 350.6666666667 0.0
v 119.0000000000 249.0000000000 0.0
v 118.7500000000 281.7500000000 0.0
v 118.2500000000 347.2500000000 0.0
v 118.5000000000 314.5000000000 0.0
v 611.3034106455 190.5083876308 0.0
v 575.5540457443 174.9126092666 0.0
v 582.7100287635 202.9245597867 0.0
v 560.6028963258 198.1875960630 0.0
v 566.1554081300 228.0501586407 0.0
v 531.7391318445 204.8515787704 0.0
v 533.0863951963 249.0339232097 0.0
v 499.5207894088 229.8692637736 0.0
v 509.8733238182 260.6645615662 0.0
v 564.8789365664 268.3932655627 0.0
v 536.9799531325 281.5432056028 0.0
v 496.9888332268 186.9580266201 0.0
v 518.4132565811 161.0318405368 0.0
v 484.6666666667 124.3333333333 0.0
v 466.8519458951 204.5008252137 0.0
v 546.9943717368 179.9675045479 0.0
v 471.5730829114 161.1077928951 0.0
v 470.4074826953 239.1899514253 0.0
v 440.6086154926 233.6665253089 0.0
v 457.3770667288 264.1266383914 0.0
v 486.5160198400 262.7039183964 0.0
v 492.9997219478 158.6037405902 0.0
v 556.6548630478 295.8285994871 0.0
v 537.3949106886 315.5748730390 0.0
v 437.8673720576 200.3360914053 0.0
v 449.6202326681 177.7740961933 0.0
v 409.3696360017 213.3276944646 0.0
v 421.8850359603 170.3069882485 0.0
v 412.1851015843 245.8956475103 0.0
v 383.0428092318 242.2021316207 0.0
v 398.4785385091 273.1521433732 0.0
v 428.7305624714 266.4749619054 0.0
v 568.7868234502 320.9548615286 0.0
v 550.8752296059 342.2486697627 0.0
v 378.8698032668 212.5146903166 0.0
v 389.9849066195 186.1776427290 0.0
v 352.5560349482 227.5313442836 0.0
v 358.7517567919 191.9546847166 0.0
v 357.8598595112 253.4526298571 0.0
v 573.3644798271 360.1325909886 0.0
v 542.7408751089 371.1978299229 0.0
v 371.3034951293 268.8373366894 0.0
v 564.2525209943 390.0879515283 0.0
v 544.6554278683 412.7250923737 0.0
v 577.3260664857 417.9887977933 0.0
v 559.6109485038 442.4613254468 0.0
v 585.1369642385 460.6862931880 0.0
v 551.9914114556 476.8381220991 0.0
v 579.1380522159 501.6274248532 0.0
v 553.2963046030 532.4813525197 0.0
v 569.0000000000 585.5714285714 0.0
v 538.0000000000 585.4285714286 0.0
v 599.7945046173 544.0211781473 0.0
v 600.0000000000 585.7142857143 0.0
v 590.0510738634 250.5296882625 0.0
v 600.4926995035 223.2698978860 0.0
v 596.3428137802 281.5248775739 0.0
v 575.1211415045 294.3658109799 0.0
v 507.5479420176 291.4647133183 0.0
v 508.5636887713 334.3736316171 0.0
v 521.9776048801 270.5102790571 0.0
v 531.9426856973 344.5190630540 0.0
v 323.7208488188 205.6388993171 0.0
v 326.3080579918 235.1157182744 0.0
v 304.4702618438 231.4103017525 0.0
v 311.5632036860 259.6522882685 0.0
v 338.4859792201 250.7530553845 0.0
v 332.8413351869 157.6308707649 0.0
v 373.7930169387 160.6404654123 0.0
v 301.3466678417 183.0824075848 0.0
v 292.9765303558 154.9849358559 0.0
v 288.5890239446 211.4490728736 0.0
v 311.0763513799 135.4820508486 0.0
v 598.9363696186 333.6141444509 0.0
v 589.0418486688 307.0641239549 0.0
v 604.5683046691 374.9252576517 0.0
v 583.3367673950 389.0705997838 0.0
v 514.0653330342 389.6652942285 0.0
v 515.1138475485 433.7822558294 0.0
v 519.8814301024 360.2732847974 0.0
v 539.6978247357 445.4081968488 0.0
v 607.7628382746 429.2205162290 0.0
v 597.3700997225 402.6816934040 0.0
v 615.1799885044 462.8363333680 0.0
v 606.9701510546 495.5774551812 0.0
v 520.6317884573 494.6261940830 0.0
v 515.2030201456 540.5393857887 0.0
v 527.3867548191 462.7613743980 0.0
v 623.2041918018 252.9505424582 0.0
v 626.8399927818 293.4000154028 0.0
v 606.1374131585 306.6734587217 0.0
v 484.8153985514 316.9840495857 0.0
v 475.8698484607 350.7907531315 0.0
v 473.1832124273 290.7876466761 0.0
v 443.6156219813 291.6692700989 0.0
v 501.7073894973 362.5702015533 0.0
v 458.1643053850 318.6045563881 0.0
v 271.0734964754 244.6614558987 0.0
v 285.2664754855 278.5037424659 0.0
v 310.4442230233 299.2383517377 0.0
v 275.0498109617 308.7180547463 0.0
v 296.2278429363 327.0646192666 0.0
v 269.6779805594 343.7693940476 0.0
v 306.7694829593 356.7256282038 0.0
v 274.4006801628 385.4163206193 0.0
v 311.8797885763 401.0455150062 0.0
v 282.1009922998 421.4081609617 0.0
v 304.6877218791 431.3812155281 0.0
v 289.2109495225 448.7655095465 0.0
v 315.0053070224 458.3156856743 0.0
v 275.0364615631 483.7150063213 0.0
v 223.5000000000 509.0000000000 0.0
v 321.0409218592 503.1013319975 0.0
v 299.0995081715 517.3224042599 0.0
v 317.5471089574 524.8603814771 0.0
v 267.6399912812 184.9298020239 0.0
v 261.6207804503 153.1513705510 0.0
v 227.8182216553 170.4270922158 0.0
v 236.3751208177 140.2200450925 0.0
v 237.6457272548 202.6667212261 0.0
v 213.8528690108 193.0743633587 0.0
v 208.9389313161 216.2755236652 0.0
v 243.8265738204 233.1422232316 0.0
v 212.9019543566 250.0299681635 0.0
v 179.9677598991 236.8574560322 0.0
v 173.6952495953 201.3588881795 0.0
v 181.1585042757 271.3928145756 0.0
v 198.1905155621 197.3394363504 0.0
v 159.2301322630 223.9002972589 0.0
v 165.8358252882 256.1366065226 0.0
v 156.0551034745 239.6875901663 0.0
v 243.0281841157 256.5787162096 0.0
v 253.0379682852 244.7845600028 0.0
v 256.7225757462 280.6273230653 0.0
v 218.2025663959 286.5916421009 0.0
v 169.8678673579 315.1201693856 0.0
v 156.2578236116 286.7496088348 0.0
v 163.0042004740 269.4181638344 0.0
v 215.7186171185 324.2298926671 0.0
v 245.3036831771 309.4021811780 0.0
v 244.3081611985 333.9567528866 0.0
v 225.3874030337 354.9215527407 0.0
v 259.0622795344 323.7020976232 0.0
v 188.8977745913 347.2811566550 0.0
v 197.8528531162 377.0581924963 0.0
v 163.0784059424 369.9830016456 0.0
v 178.8101515611 396.4144218929 0.0
v 230.1997417003 387.8014421994 0.0
v 200.0411456875 408.6897393909 0.0
v 231.5356706182 422.1778188593 0.0
v 205.9586327683 452.0543707052 0.0
v 172.3250154669 420.3232570648 0.0
v 242.3202937412 457.9476415592 0.0
v 174.2991403141 450.9904837815 0.0
v 153.7224411689 434.8255925345 0.0
v 183.6178341552 408.0356335494 0.0
v 156.2903529057 396.9777588332 0.0
v 250.3468652697 367.4038977946 0.0
v 252.4113890189 402.2338357133 0.0
v 257.4430403274 426.7680835937 0.0
v 252.1819376161 385.2833142462 0.0
v 266.9331857015 408.5387678889 0.0
v 267.7661064219 450.6912288319 0.0
v 160.1498550721 344.6410389656 0.0
v 247.8837198704 349.6428966705 0.0
v 261.6800172477 218.1984514101 0.0
v 259.2379867256 232.0321573641 0.0
v 195.0014798357 178.9812234346 0.0
v 630.8639638963 347.7304128266 0.0
v 619.9371135220 319.6153069227 0.0
v 634.0410625895 389.3125096064 0.0
v 614.2258904399 402.3790155234 0.0
v 484.1519720507 409.6959503826 0.0
v 485.8285547015 453.2269679267 0.0
v 489.5101634163 378.7554374177 0.0
v 509.3992942916 464.6422497946 0.0
v 638.7388676889 442.6495843149 0.0
v 627.7617806783 415.6645663330 0.0
v 639.1994423246 486.6744425785 0.0
v 489.3085910303 506.4260965205 0.0
v 482.5505491601 539.0645113380 0.0
v 497.3115334725 479.9465771627 0.0
v 656.8899106735 274.9235421916 0.0
v 663.1002899733 233.6507044256 0.0
v 689.0760474412 259.4763451423 0.0
v 691.4857092645 234.0347674842 0.0
v 630.8063100503 215.8749052137 0.0
v 716.3481254485 245.8624647567 0.0
v 653.8872330085 202.0275634028 0.0
v 634.5543320552 194.1581895166 0.0
v 649.6323249995 302.7419847703 0.0
v 637.4272221843 318.1531586912 0.0
v 681.8379004894 285.2458599163 0.0
v 667.8471034402 300.3298020990 0.0
v 711.9201996002 264.2338471773 0.0
v 705.9377052152 282.0304095046 0.0
v 343.6641498054 277.8658367910 0.0
v 342.3663634623 315.9514602417 0.0
v 317.7854587295 328.0330854014 0.0
v 343.3123278546 371.4859113035 0.0
v 332.4990374430 342.4553426215 0.0
v 346.4385565161 414.2981351561 0.0
v 323.6337145098 429.1703022644 0.0
v 351.0337702623 471.3971411455 0.0
v 338.9624708808 442.5009804082 0.0
v 356.7279838466 512.3737281401 0.0
v 660.8432114451 370.7189518235 0.0
v 660.9155736212 328.9545114949 0.0
v 655.7935172785 399.1113008076 0.0
v 644.6452189053 414.3134259859 0.0
v 453.9639538648 432.1312883630 0.0
v 459.0376983321 471.8185226100 0.0
v 458.3718395095 399.5402533059 0.0
v 470.8850492397 382.0559289579 0.0
v 480.2860144293 481.1940370781 0.0
v 670.9331160006 465.1607060906 0.0
v 667.4033490278 424.1248390274 0.0
v 667.7121316546 499.2491611357 0.0
v 652.0937906301 522.5929962108 0.0
v 685.8942931174 530.0928884338 0.0
v 661.6535808047 553.2960404244 0.0
v 635.0651467814 547.6898906258 0.0
v 626.0979516684 519.1112969493 0.0
v 642.2558564220 562.1766564953 0.0
v 683.5854304240 552.1176094561 0.0
v 459.0644650852 514.6674545710 0.0
v 441.4959436386 547.3281559611 0.0
v 468.5664971059 494.0623358552 0.0
v 738.6002860662 271.7295774094 0.0
v 373.4774340371 297.9502189180 0.0
v 366.8883071406 326.3186907731 0.0
v 352.1318242419 341.5986042116 0.0
v 401.2509566115 300.9939507388 0.0
v 391.1749457448 324.2379044321 0.0
v 377.0959996048 393.1871397779 0.0
v 376.1750041760 353.4899042120 0.0
v 371.5448177474 424.3030408379 0.0
v 358.0021613451 440.6188563671 0.0
v 385.3153677613 491.6707208160 0.0
v 381.8926697545 451.7117950231 0.0
v 379.0131468414 516.6897385532 0.0
v 371.8546827502 536.2641479048 0.0
v 402.4518958760 525.2369738377 0.0
v 689.4022950239 352.9133530069 0.0
v 692.3729908762 312.2806362496 0.0
v 683.3040230463 380.9302571816 0.0
v 672.2936052628 396.3240243656 0.0
v 431.6488688109 459.4380354242 0.0
v 437.6346805289 486.5704993496 0.0
v 421.1646516908 429.4782913163 0.0
v 436.3660659488 402.2634099099 0.0
v 453.7714315120 494.5306798817 0.0
v 695.5934243043 443.5925649318 0.0
v 694.3305837575 406.1004485219 0.0
v 696.9333724820 466.9712640881 0.0
v 692.4803841585 491.2852333057 0.0
v 432.9508366918 514.9829719605 0.0
v 443.4444717416 502.9597057018 0.0
v 419.2863484612 290.3758779318 0.0
v 424.2668962236 320.5556824324 0.0
v 397.7166557169 371.9300121610 0.0
v 406.0337513434 348.1592632457 0.0
v 410.5511759534 396.1798986894 0.0
v 394.4064494637 422.9572329570 0.0
v 428.3262593951 350.4744940889 0.0
v 419.3202164557 370.4000331318 0.0
v 408.7648822770 467.3246238127 0.0
v 404.5023586743 444.2339884553 0.0
v 417.7374588292 495.3632509901 0.0
v 416.5076472133 450.1202286689 0.0
v 423.9656626959 477.5492863648 0.0
v 433.0232746371 500.6588409402 0.0
v 718.4932395969 337.2163721313 0.0
v 725.3774533323 302.8755475850 0.0
v 711.3528884108 363.5616114330 0.0
v 699.9660874190 378.4250229701 0.0
v 719.7967030052 429.1353881506 0.0
v 721.7558466095 388.9799800963 0.0
v 713.0256837034 451.7322650925 0.0
v 706.3444624614 459.3774741506 0.0
v 446.5096877303 342.3087160018 0.0
v 445.5595063781 372.5861075236 0.0
v 746.1001391985 323.4101076043 0.0
v 753.2739504709 294.1226513700 0.0
v 738.9679783483 347.4685831497 0.0
v 727.7395318959 361.4512965520 0.0
v 750.2399059005 412.7855907351 0.0
v 748.5891091878 371.9001184701 0.0
v 739.3478002122 448.0299643872 0.0
v 723.0967477609 450.9450615378 0.0
v 767.9746487401 308.3958047353 0.0
v 765.5894921345 332.1277299559 0.0
v 754.5487021058 345.9426872816 0.0
v 772.8278651230 391.3860274410 0.0
v 773.8340423039 357.6566029475 0.0
v 779.0634807728 417.8101192188 0.0
v 769.1562690551 442.3299413018 0.0
v 785.8650052830 327.9882497193 0.0
v 794.6138179231 382.6351624838 0.0
v 794.5377633659 354.4630474312 0.0
v 789.8634097209 406.8269549412 0.0
v 147.8355204388 263.9847321352 0.0
v 548.5327769964 160.1665294645 0.0
v 535.5974746288 146.3135069516 0.0
v 174.0471349207 172.0462769057 0.0
v 258.9752659005 467.6399992330 0.0
v 250.0778756032 479.3551521669 0.0
v 449.1044240827 150.5021157544 0.0
v 427.9929561695 385.0586522236 0.0
v 715.1370204935 511.3336616230 0.0
v 719.3512445102 473.3992884131 0.0
v 753.2173639061 478.1162066498 0.0
v 733.7230970503 499.6645834086 0.0
v 712.8901220538 537.4243315870 0.0
v 779.6795589497 460.8043767775 0.0
v 399.7866883938 146.2588229737 0.0
v 396.4518840617 166.2008273967 0.0
v 141.0126141819 382.6188543991 0.0
f 1 2 3
f 4 5 6
f 7 8 9
f 10 11 12
f 11 13 14
f 15 12 16
f 17 3 18
f 19 20 21
f 20 22 23
f 24 25 26
f 27 21 28
f 29 30 31
f 30 32 33
f 34 35 23
f 35 36 37
f 38 39 7
f 40 4 6
f 41 42 43
f 44 45 33
f 45 46 26
f 47 48 49
f 50 16 12
f 51 18 3
f 52 53 54
f 55 56 57
f 58 59 60
f 59 43 42
f 57 49 48
f 25 61 26
f 62 54 53
f 63 31 30
f 6 63 40
f 64 28 65
f 14 66 11
f 67 65 28
f 9 60 68
f 9 68 69
f 69 68 70
f 69 70 71
f 71 70 72
f 71 72 73
f 73 72 74
f 73 74 75
f 75 74 76
f 74 72 77
f 74 77 78
f 73 75 79
f 73 79 80
f 81 38 80
f 79 75 82
f 73 80 83
f 73 83 71
f 71 83 69
f 79 82 84
f 2 81 84
f 82 75 85
f 82 85 86
f 86 85 87
f 85 75 88
f 85 88 87
f 88 75 76
f 79 84 89
f 89 84 81
f 78 77 90
f 78 90 91
f 80 79 89
f 80 89 81
f 82 86 92
f 82 92 93
f 82 93 84
f 92 86 94
f 92 94 95
f 93 92 95
f 94 86 96
f 94 96 97
f 97 96 98
f 96 86 99
f 96 99 98
f 99 86 87
f 91 90 100
f 91 100 101
f 94 97 102
f 94 102 103
f 94 103 95
f 102 97 104
f 102 104 105
f 103 102 105
f 104 97 106
f 101 100 107
f 101 107 108
f 106 97 109
f 109 97 98
f 108 107 110
f 108 110 111
f 111 110 112
f 111 112 113
f 113 112 114
f 113 114 115
f 115 114 116
f 115 116 117
f 118 119 117
f 117 116 120
f 61 121 120
f 121 118 120
f 117 120 118
f 77 72 122
f 122 72 123
f 123 72 70
f 123 70 68
f 77 122 124
f 77 124 125
f 77 125 90
f 90 125 100
f 78 91 126
f 88 76 126
f 126 91 127
f 78 126 128
f 78 128 74
f 128 126 76
f 128 76 74
f 127 91 129
f 129 91 101
f 129 101 108
f 105 104 130
f 130 104 131
f 130 131 132
f 132 131 133
f 131 104 134
f 131 134 133
f 134 104 106
f 105 130 135
f 37 51 135
f 105 135 136
f 105 136 103
f 135 130 137
f 135 137 138
f 137 130 139
f 139 130 132
f 135 138 140
f 140 138 35
f 107 100 141
f 141 100 142
f 125 124 142
f 125 142 100
f 107 141 143
f 107 143 144
f 107 144 110
f 110 144 112
f 108 111 145
f 145 111 146
f 108 145 147
f 127 129 147
f 147 129 108
f 146 111 148
f 148 111 113
f 148 113 115
f 114 112 149
f 149 112 150
f 144 143 150
f 144 150 112
f 114 149 151
f 114 151 152
f 114 152 116
f 116 152 120
f 115 117 153
f 153 117 154
f 119 62 154
f 115 153 155
f 146 148 155
f 155 148 115
f 154 117 119
f 124 122 156
f 122 123 156
f 124 156 157
f 124 157 158
f 124 158 142
f 142 158 141
f 126 127 159
f 159 127 160
f 126 159 161
f 126 161 88
f 88 161 87
f 87 161 162
f 99 87 162
f 160 127 163
f 163 127 147
f 163 147 145
f 162 161 164
f 164 161 159
f 164 159 160
f 132 133 165
f 139 132 165
f 165 133 166
f 166 133 167
f 166 167 168
f 168 167 169
f 168 169 170
f 170 169 171
f 170 171 172
f 172 171 173
f 172 173 174
f 174 173 175
f 174 175 176
f 176 175 177
f 176 177 178
f 48 179 178
f 178 177 180
f 178 180 181
f 181 180 182
f 181 182 57
f 57 182 180
f 138 137 183
f 137 139 183
f 138 183 184
f 138 184 35
f 184 183 185
f 184 185 186
f 186 185 20
f 185 183 187
f 185 187 188
f 188 187 189
f 189 187 190
f 189 190 191
f 189 191 192
f 189 192 193
f 192 191 194
f 189 193 195
f 189 195 188
f 193 192 196
f 192 194 197
f 192 197 198
f 192 198 196
f 196 198 28
f 196 28 193
f 191 190 199
f 199 190 200
f 199 200 165
f 165 200 190
f 199 165 201
f 201 165 166
f 201 166 168
f 194 191 202
f 199 201 202
f 202 191 199
f 194 202 203
f 66 67 203
f 194 203 204
f 194 204 205
f 194 205 197
f 204 203 67
f 203 202 206
f 206 202 207
f 207 202 201
f 207 201 168
f 206 207 208
f 206 208 209
f 208 207 210
f 208 210 170
f 210 207 168
f 210 168 170
f 206 209 211
f 211 209 212
f 211 212 213
f 213 212 214
f 212 209 215
f 212 215 216
f 216 215 217
f 216 217 218
f 179 50 218
f 216 218 219
f 218 217 220
f 219 218 221
f 219 221 222
f 219 222 11
f 11 222 12
f 12 222 221
f 12 221 50
f 216 219 223
f 216 223 214
f 214 223 219
f 214 219 224
f 214 224 213
f 221 218 50
f 216 214 212
f 218 220 179
f 215 209 225
f 217 215 226
f 217 226 227
f 226 215 228
f 226 228 172
f 228 215 225
f 228 225 172
f 226 172 229
f 226 229 227
f 227 229 174
f 174 229 172
f 227 174 230
f 227 230 220
f 230 174 176
f 230 176 178
f 217 227 220
f 211 213 231
f 231 213 66
f 211 231 203
f 225 209 232
f 225 232 170
f 232 209 208
f 232 208 170
f 225 170 172
f 206 211 203
f 187 183 233
f 165 190 234
f 234 190 233
f 234 233 165
f 233 190 187
f 185 188 235
f 188 195 235
f 195 193 235
f 185 235 20
f 143 141 236
f 236 141 237
f 158 157 237
f 158 237 141
f 143 236 238
f 143 238 239
f 143 239 150
f 150 239 149
f 145 146 240
f 240 146 241
f 145 240 242
f 160 163 242
f 242 163 145
f 241 146 243
f 243 146 155
f 243 155 153
f 151 149 244
f 244 149 245
f 239 238 245
f 239 245 149
f 151 244 246
f 152 151 246
f 153 154 247
f 247 154 248
f 153 247 249
f 241 243 249
f 249 243 153
f 248 154 62
f 157 156 250
f 250 156 251
f 250 251 252
f 252 251 253
f 251 156 254
f 252 253 255
f 255 253 59
f 59 253 251
f 255 59 42
f 251 254 256
f 256 254 257
f 256 257 60
f 257 254 68
f 257 68 60
f 157 250 258
f 157 258 259
f 157 259 237
f 237 259 236
f 250 252 260
f 250 260 261
f 250 261 258
f 252 255 262
f 252 262 263
f 252 263 260
f 167 133 264
f 106 109 264
f 134 106 264
f 134 264 133
f 167 264 265
f 167 265 266
f 167 266 169
f 169 266 171
f 173 171 267
f 267 171 268
f 266 265 268
f 266 268 171
f 173 267 269
f 173 269 270
f 173 270 175
f 175 270 177
f 180 177 271
f 271 177 272
f 270 269 272
f 270 272 177
f 180 271 273
f 180 273 57
f 178 181 48
f 233 183 139
f 233 139 165
f 238 236 274
f 274 236 275
f 259 258 275
f 258 261 275
f 259 275 236
f 238 274 276
f 238 276 277
f 238 277 245
f 245 277 244
f 240 241 278
f 278 241 279
f 240 278 280
f 240 280 281
f 240 281 242
f 242 281 160
f 279 241 282
f 282 241 249
f 282 249 247
f 246 244 283
f 283 244 284
f 277 276 284
f 277 284 244
f 246 283 285
f 246 285 286
f 286 285 287
f 286 287 288
f 286 288 289
f 286 289 290
f 289 288 291
f 291 288 61
f 291 61 289
f 286 290 246
f 290 289 120
f 246 290 152
f 152 290 120
f 288 287 292
f 292 287 26
f 292 26 288
f 247 248 293
f 293 248 294
f 53 55 294
f 247 293 295
f 279 282 295
f 295 282 247
f 294 248 62
f 254 156 123
f 254 123 68
f 251 256 59
f 262 255 296
f 263 262 296
f 42 40 296
f 296 255 42
f 265 264 297
f 109 98 297
f 109 297 264
f 265 297 298
f 265 298 299
f 265 299 268
f 268 299 267
f 297 98 300
f 297 300 301
f 297 301 298
f 269 267 302
f 302 267 303
f 299 298 303
f 298 301 303
f 299 303 267
f 269 302 304
f 269 304 305
f 269 305 272
f 272 305 271
f 273 271 306
f 306 271 307
f 305 304 307
f 305 307 271
f 273 306 308
f 273 308 309
f 273 309 57
f 57 309 55
f 309 308 310
f 310 308 306
f 274 275 311
f 311 275 312
f 261 260 312
f 260 263 312
f 261 312 275
f 274 311 313
f 274 313 314
f 274 314 276
f 276 314 284
f 278 279 315
f 315 279 316
f 278 315 317
f 278 317 318
f 278 318 280
f 316 279 319
f 319 279 295
f 319 295 293
f 283 284 320
f 320 284 321
f 314 313 321
f 314 321 284
f 283 320 322
f 283 322 323
f 283 323 285
f 285 323 287
f 293 294 324
f 324 294 310
f 293 324 325
f 316 319 325
f 325 319 293
f 300 98 326
f 326 98 99
f 326 99 162
f 326 162 327
f 301 300 327
f 162 164 327
f 327 300 326
f 302 303 328
f 328 303 329
f 302 328 330
f 318 317 330
f 302 330 331
f 331 330 317
f 302 331 304
f 304 331 307
f 329 303 301
f 329 301 327
f 329 327 332
f 329 332 333
f 329 333 328
f 328 333 330
f 306 307 334
f 334 307 335
f 306 334 336
f 306 336 310
f 335 307 331
f 335 331 317
f 335 317 337
f 335 337 334
f 337 317 315
f 337 315 334
f 334 315 338
f 334 338 336
f 338 315 316
f 338 316 336
f 336 316 339
f 339 316 325
f 339 325 324
f 311 312 340
f 340 312 341
f 311 340 342
f 311 342 343
f 311 343 313
f 313 343 321
f 341 312 263
f 341 263 296
f 320 321 344
f 344 321 345
f 343 342 345
f 343 345 321
f 320 344 346
f 320 346 347
f 320 347 322
f 332 327 348
f 348 327 164
f 348 164 160
f 348 160 349
f 281 280 349
f 333 332 349
f 280 318 349
f 281 349 160
f 349 332 348
f 340 341 350
f 350 341 351
f 340 350 352
f 340 352 353
f 340 353 342
f 342 353 345
f 351 341 296
f 351 296 40
f 344 345 354
f 354 345 355
f 353 352 355
f 353 355 345
f 344 354 356
f 344 356 357
f 344 357 346
f 350 351 358
f 358 351 40
f 350 358 359
f 350 359 360
f 350 360 352
f 352 360 355
f 354 355 361
f 361 355 362
f 360 359 362
f 360 362 355
f 354 361 363
f 354 363 364
f 364 363 30
f 354 364 356
f 359 358 365
f 365 358 40
f 359 365 362
f 361 362 366
f 366 362 367
f 361 366 368
f 361 368 363
f 363 368 30
f 30 368 366
f 367 362 365
f 366 367 63
f 63 367 365
f 366 63 30
f 120 289 61
f 9 69 7
f 256 60 59
f 61 288 26
f 203 231 66
f 35 184 186
f 28 198 369
f 205 204 369
f 198 197 369
f 197 205 369
f 224 219 11
f 309 310 55
f 136 135 51
f 135 140 37
f 37 140 35
f 7 69 370
f 83 80 370
f 83 370 69
f 7 370 371
f 371 370 80
f 7 371 38
f 371 80 38
f 294 62 53
f 365 40 63
f 20 235 372
f 20 372 21
f 21 372 193
f 193 372 235
f 220 230 373
f 220 373 374
f 374 373 178
f 220 374 179
f 178 373 230
f 179 374 178
f 93 95 375
f 3 2 375
f 3 375 95
f 375 2 84
f 375 84 93
f 318 330 376
f 376 330 333
f 376 333 349
f 376 349 318
f 339 324 336
f 287 323 377
f 377 323 378
f 323 322 378
f 347 346 378
f 378 346 357
f 357 356 378
f 347 378 322
f 378 356 379
f 356 364 379
f 378 379 380
f 378 380 377
f 377 380 45
f 45 380 379
f 377 45 381
f 377 381 287
f 381 45 26
f 381 26 287
f 379 364 382
f 379 382 33
f 379 33 45
f 33 382 30
f 382 364 30
f 48 181 57
f 369 204 67
f 136 51 383
f 136 383 384
f 95 103 384
f 384 103 136
f 95 384 383
f 95 383 3
f 3 383 51
f 186 20 23
f 66 213 385
f 224 11 385
f 224 385 213
f 66 385 11
f 324 310 336
f 21 193 28
f 23 35 186
f 369 67 28
f 310 294 55
