# vtk DataFile Version 3.0
AFM mesh VTK export
ASCII
DATASET POLYDATA
POINTS 385 float
447.0000000000 117.0000000000 0.0
460.0000000000 123.0000000000 0.0
442.0000000000 119.0000000000 0.0
809.0000000000 284.0000000000 0.0
818.0000000000 297.0000000000 0.0
824.0000000000 319.0000000000 0.0
566.0000000000 138.0000000000 0.0
583.0000000000 140.0000000000 0.0
613.0000000000 154.3333333333 0.0
132.0000000000 434.0000000000 0.0
126.5000000000 417.0000000000 0.0
142.0000000000 451.5000000000 0.0
121.0000000000 400.0000000000 0.0
118.0000000000 380.0000000000 0.0
152.0000000000 469.0000000000 0.0
172.0000000000 485.0000000000 0.0
422.0000000000 114.0000000000 0.0
393.2500000000 114.0000000000 0.0
163.0000000000 151.0000000000 0.0
181.0000000000 140.0000000000 0.0
146.0000000000 168.0000000000 0.0
199.0000000000 129.0000000000 0.0
228.5000000000 122.5000000000 0.0
683.0000000000 582.0000000000 0.0
662.0000000000 586.0000000000 0.0
704.0000000000 573.0000000000 0.0
134.0000000000 187.0000000000 0.0
126.5000000000 218.0000000000 0.0
823.0000000000 414.0000000000 0.0
812.5000000000 436.0000000000 0.0
823.3333333333 382.3333333333 0.0
802.0000000000 458.0000000000 0.0
783.5000000000 486.5000000000 0.0
258.0000000000 116.0000000000 0.0
282.5000000000 115.0000000000 0.0
307.0000000000 114.0000000000 0.0
335.7500000000 114.0000000000 0.0
509.3333333333 125.6666666667 0.0
534.0000000000 127.0000000000 0.0
789.6666666667 266.6666666667 0.0
751.0000000000 232.0000000000 0.0
770.3333333333 249.3333333333 0.0
725.0000000000 214.0000000000 0.0
765.0000000000 515.0000000000 0.0
747.0000000000 535.0000000000 0.0
729.0000000000 555.0000000000 0.0
275.0000000000 533.0000000000 0.0
249.2500000000 521.0000000000 0.0
303.6666666667 543.6666666667 0.0
197.7500000000 497.0000000000 0.0
364.5000000000 114.0000000000 0.0
445.0000000000 585.0000000000 0.0
417.0000000000 578.3333333333 0.0
476.0000000000 585.1428571429 0.0
389.0000000000 571.6666666667 0.0
361.0000000000 565.0000000000 0.0
332.3333333333 554.3333333333 0.0
673.0000000000 183.0000000000 0.0
699.0000000000 198.5000000000 0.0
643.0000000000 168.6666666667 0.0
631.0000000000 585.8571428571 0.0
507.0000000000 585.2857142857 0.0
823.6666666667 350.6666666667 0.0
119.0000000000 249.0000000000 0.0
118.7500000000 281.7500000000 0.0
118.2500000000 347.2500000000 0.0
118.5000000000 314.5000000000 0.0
611.3034106455 190.5083876308 0.0
575.5540457443 174.9126092666 0.0
582.7100287635 202.9245597867 0.0
560.6028963258 198.1875960630 0.0
566.1554081300 228.0501586407 0.0
531.7391318445 204.8515787704 0.0
533.0863951963 249.0339232097 0.0
499.5207894088 229.8692637736 0.0
509.8733238182 260.6645615662 0.0
564.8789365664 268.3932655627 0.0
536.9799531325 281.5432056028 0.0
496.9888332268 186.9580266201 0.0
518.4132565811 161.0318405368 0.0
484.6666666667 124.3333333333 0.0
466.8519458951 204.5008252137 0.0
546.9943717368 179.9675045479 0.0
471.5730829114 161.1077928951 0.0
470.4074826953 239.1899514253 0.0
440.6086154926 233.6665253089 0.0
457.3770667288 264.1266383914 0.0
486.5160198400 262.7039183964 0.0
492.9997219478 158.6037405902 0.0
556.6548630478 295.8285994871 0.0
537.3949106886 315.5748730390 0.0
437.8673720576 200.3360914053 0.0
449.6202326681 177.7740961933 0.0
409.3696360017 213.3276944646 0.0
421.8850359603 170.3069882485 0.0
412.1851015843 245.8956475103 0.0
383.0428092318 242.2021316207 0.0
398.4785385091 273.1521433732 0.0
428.7305624714 266.4749619054 0.0
568.7868234502 320.9548615286 0.0
550.8752296059 342.2486697627 0.0
378.8698032668 212.5146903166 0.0
389.9849066195 186.1776427290 0.0
352.5560349482 227.5313442836 0.0
358.7517567919 191.9546847166 0.0
357.8598595112 253.4526298571 0.0
573.3644798271 360.1325909886 0.0
542.7408751089 371.1978299229 0.0
371.3034951293 268.8373366894 0.0
564.2525209943 390.0879515283 0.0
544.6554278683 412.7250923737 0.0
577.3260664857 417.9887977933 0.0
559.6109485038 442.4613254468 0.0
585.1369642385 460.6862931880 0.0
551.9914114556 476.8381220991 0.0
579.1380522159 501.6274248532 0.0
553.2963046030 532.4813525197 0.0
569.0000000000 585.5714285714 0.0
538.0000000000 585.4285714286 0.0
599.7945046173 544.0211781473 0.0
600.0000000000 585.7142857143 0.0
590.0510738634 250.5296882625 0.0
600.4926995035 223.2698978860 0.0
596.3428137802 281.5248775739 0.0
575.1211415045 294.3658109799 0.0
507.5479420176 291.4647133183 0.0
508.5636887713 334.3736316171 0.0
521.9776048801 270.5102790571 0.0
531.9426856973 344.5190630540 0.0
323.7208488188 205.6388993171 0.0
326.3080579918 235.1157182744 0.0
304.4702618438 231.4103017525 0.0
311.5632036860 259.6522882685 0.0
338.4859792201 250.7530553845 0.0
332.8413351869 157.6308707649 0.0
373.7930169387 160.6404654123 0.0
301.3466678417 183.0824075848 0.0
292.9765303558 154.9849358559 0.0
288.5890239446 211.4490728736 0.0
311.0763513799 135.4820508486 0.0
598.9363696186 333.6141444509 0.0
589.0418486688 307.0641239549 0.0
604.5683046691 374.9252576517 0.0
583.3367673950 389.0705997838 0.0
514.0653330342 389.6652942285 0.0
515.1138475485 433.7822558294 0.0
519.8814301024 360.2732847974 0.0
539.6978247357 445.4081968488 0.0
607.7628382746 429.2205162290 0.0
597.3700997225 402.6816934040 0.0
615.1799885044 462.8363333680 0.0
606.9701510546 495.5774551812 0.0
520.6317884573 494.6261940830 0.0
515.2030201456 540.5393857887 0.0
527.3867548191 462.7613743980 0.0
623.2041918018 252.9505424582 0.0
626.8399927818 293.4000154028 0.0
606.1374131585 306.6734587217 0.0
484.8153985514 316.9840495857 0.0
475.8698484607 350.7907531315 0.0
473.1832124273 290.7876466761 0.0
443.6156219813 291.6692700989 0.0
501.7073894973 362.5702015533 0.0
458.1643053850 318.6045563881 0.0
271.0734964754 244.6614558987 0.0
285.2664754855 278.5037424659 0.0
310.4442230233 299.2383517377 0.0
275.0498109617 308.7180547463 0.0
296.2278429363 327.0646192666 0.0
269.6779805594 343.7693940476 0.0
306.7694829593 356.7256282038 0.0
274.4006801628 385.4163206193 0.0
311.8797885763 401.0455150062 0.0
282.1009922998 421.4081609617 0.0
304.6877218791 431.3812155281 0.0
289.2109495225 448.7655095465 0.0
315.0053070224 458.3156856743 0.0
275.0364615631 483.7150063213 0.0
223.5000000000 509.0000000000 0.0
321.0409218592 503.1013319975 0.0
299.0995081715 517.3224042599 0.0
317.5471089574 524.8603814771 0.0
267.6399912812 184.9298020239 0.0
261.6207804503 153.1513705510 0.0
227.8182216553 170.4270922158 0.0
236.3751208177 140.2200450925 0.0
237.6457272548 202.6667212261 0.0
213.8528690108 193.0743633587 0.0
208.9389313161 216.2755236652 0.0
243.8265738204 233.1422232316 0.0
212.9019543566 250.0299681635 0.0
179.9677598991 236.8574560322 0.0
173.6952495953 201.3588881795 0.0
181.1585042757 271.3928145756 0.0
198.1905155621 197.3394363504 0.0
159.2301322630 223.9002972589 0.0
165.8358252882 256.1366065226 0.0
156.0551034745 239.6875901663 0.0
243.0281841157 256.5787162096 0.0
253.0379682852 244.7845600028 0.0
256.7225757462 280.6273230653 0.0
218.2025663959 286.5916421009 0.0
169.8678673579 315.1201693856 0.0
156.2578236116 286.7496088348 0.0
163.0042004740 269.4181638344 0.0
215.7186171185 324.2298926671 0.0
245.3036831771 309.4021811780 0.0
244.3081611985 333.9567528866 0.0
225.3874030337 354.9215527407 0.0
259.0622795344 323.7020976232 0.0
188.8977745913 347.2811566550 0.0
197.8528531162 377.0581924963 0.0
163.0784059424 369.9830016456 0.0
178.8101515611 396.4144218929 0.0
230.1997417003 387.8014421994 0.0
200.0411456875 408.6897393909 0.0
231.5356706182 422.1778188593 0.0
205.9586327683 452.0543707052 0.0
172.3250154669 420.3232570648 0.0
242.3202937412 457.9476415592 0.0
174.2991403141 450.9904837815 0.0
153.7224411689 434.8255925345 0.0
183.6178341552 408.0356335494 0.0
156.2903529057 396.9777588332 0.0
250.3468652697 367.4038977946 0.0
252.4113890189 402.2338357133 0.0
257.4430403274 426.7680835937 0.0
252.1819376161 385.2833142462 0.0
266.9331857015 408.5387678889 0.0
267.7661064219 450.6912288319 0.0
160.1498550721 344.6410389656 0.0
247.8837198704 349.6428966705 0.0
261.6800172477 218.1984514101 0.0
259.2379867256 232.0321573641 0.0
195.0014798357 178.9812234346 0.0
630.8639638963 347.7304128266 0.0
619.9371135220 319.6153069227 0.0
634.0410625895 389.3125096064 0.0
614.2258904399 402.3790155234 0.0
484.1519720507 409.6959503826 0.0
485.8285547015 453.2269679267 0.0
489.5101634163 378.7554374177 0.0
509.3992942916 464.6422497946 0.0
638.7388676889 442.6495843149 0.0
627.7617806783 415.6645663330 0.0
639.1994423246 486.6744425785 0.0
489.3085910303 506.4260965205 0.0
482.5505491601 539.0645113380 0.0
497.3115334725 479.9465771627 0.0
656.8899106735 274.9235421916 0.0
663.1002899733 233.6507044256 0.0
689.0760474412 259.4763451423 0.0
691.4857092645 234.0347674842 0.0
630.8063100503 215.8749052137 0.0
716.3481254485 245.8624647567 0.0
653.8872330085 202.0275634028 0.0
634.5543320552 194.1581895166 0.0
649.6323249995 302.7419847703 0.0
637.4272221843 318.1531586912 0.0
681.8379004894 285.2458599163 0.0
667.8471034402 300.3298020990 0.0
711.9201996002 264.2338471773 0.0
705.9377052152 282.0304095046 0.0
343.6641498054 277.8658367910 0.0
342.3663634623 315.9514602417 0.0
317.7854587295 328.0330854014 0.0
343.3123278546 371.4859113035 0.0
332.4990374430 342.4553426215 0.0
346.4385565161 414.2981351561 0.0
323.6337145098 429.1703022644 0.0
351.0337702623 471.3971411455 0.0
338.9624708808 442.5009804082 0.0
356.7279838466 512.3737281401 0.0
660.8432114451 370.7189518235 0.0
660.9155736212 328.9545114949 0.0
655.7935172785 399.1113008076 0.0
644.6452189053 414.3134259859 0.0
453.9639538648 432.1312883630 0.0
459.0376983321 471.8185226100 0.0
458.3718395095 399.5402533059 0.0
470.8850492397 382.0559289579 0.0
480.2860144293 481.1940370781 0.0
670.9331160006 465.1607060906 0.0
667.4033490278 424.1248390274 0.0
667.7121316546 499.2491611357 0.0
652.0937906301 522.5929962108 0.0
685.8942931174 530.0928884338 0.0
661.6535808047 553.2960404244 0.0
635.0651467814 547.6898906258 0.0
626.0979516684 519.1112969493 0.0
642.2558564220 562.1766564953 0.0
683.5854304240 552.1176094561 0.0
459.0644650852 514.6674545710 0.0
441.4959436386 547.3281559611 0.0
468.5664971059 494.0623358552 0.0
738.6002860662 271.7295774094 0.0
373.4774340371 297.9502189180 0.0
366.8883071406 326.3186907731 0.0
352.1318242419 341.5986042116 0.0
401.2509566115 300.9939507388 0.0
391.1749457448 324.2379044321 0.0
377.0959996048 393.1871397779 0.0
376.1750041760 353.4899042120 0.0
371.5448177474 424.3030408379 0.0
358.0021613451 440.6188563671 0.0
385.3153677613 491.6707208160 0.0
381.8926697545 451.7117950231 0.0
379.0131468414 516.6897385532 0.0
371.8546827502 536.2641479048 0.0
402.4518958760 525.2369738377 0.0
689.4022950239 352.9133530069 0.0
692.3729908762 312.2806362496 0.0
683.3040230463 380.9302571816 0.0
672.2936052628 396.3240243656 0.0
431.6488688109 459.4380354242 0.0
437.6346805289 486.5704993496 0.0
421.1646516908 429.4782913163 0.0
436.3660659488 402.2634099099 0.0
453.7714315120 494.5306798817 0.0
695.5934243043 443.5925649318 0.0
694.3305837575 406.1004485219 0.0
696.9333724820 466.9712640881 0.0
692.4803841585 491.2852333057 0.0
432.9508366918 514.9829719605 0.0
443.4444717416 502.9597057018 0.0
419.2863484612 290.3758779318 0.0
424.2668962236 320.5556824324 0.0
397.7166557169 371.9300121610 0.0
406.0337513434 348.1592632457 0.0
410.5511759534 396.1798986894 0.0
394.4064494637 422.9572329570 0.0
428.3262593951 350.4744940889 0.0
419.3202164557 370.4000331318 0.0
408.7648822770 467.3246238127 0.0
404.5023586743 444.2339884553 0.0
417.7374588292 495.3632509901 0.0
416.5076472133 450.1202286689 0.0
423.9656626959 477.5492863648 0.0
433.0232746371 500.6588409402 0.0
718.4932395969 337.2163721313 0.0
725.3774533323 302.8755475850 0.0
711.3528884108 363.5616114330 0.0
699.9660874190 378.4250229701 0.0
719.7967030052 429.1353881506 0.0
721.7558466095 388.9799800963 0.0
713.0256837034 451.7322650925 0.0
706.3444624614 459.3774741506 0.0
446.5096877303 342.3087160018 0.0
445.5595063781 372.5861075236 0.0
746.1001391985 323.4101076043 0.0
753.2739504709 294.1226513700 0.0
738.9679783483 347.4685831497 0.0
727.7395318959 361.4512965520 0.0
750.2399059005 412.7855907351 0.0
748.5891091878 371.9001184701 0.0
739.3478002122 448.0299643872 0.0
723.0967477609 450.9450615378 0.0
767.9746487401 308.3958047353 0.0
765.5894921345 332.1277299559 0.0
754.5487021058 345.9426872816 0.0
772.8278651230 391.3860274410 0.0
773.8340423039 357.6566029475 0.0
779.0634807728 417.8101192188 0.0
769.1562690551 442.3299413018 0.0
785.8650052830 327.9882497193 0.0
794.6138179231 382.6351624838 0.0
794.5377633659 354.4630474312 0.0
789.8634097209 406.8269549412 0.0
147.8355204388 263.9847321352 0.0
548.5327769964 160.1665294645 0.0
535.5974746288 146.3135069516 0.0
174.0471349207 172.0462769057 0.0
258.9752659005 467.6399992330 0.0
250.0778756032 479.3551521669 0.0
449.1044240827 150.5021157544 0.0
427.9929561695 385.0586522236 0.0
715.1370204935 511.3336616230 0.0
719.3512445102 473.3992884131 0.0
753.2173639061 478.1162066498 0.0
733.7230970503 499.6645834086 0.0
712.8901220538 537.4243315870 0.0
779.6795589497 460.8043767775 0.0
399.7866883938 146.2588229737 0.0
396.4518840617 166.2008273967 0.0
141.0126141819 382.6188543991 0.0
POLYGONS 696 2784
3 0 1 2
3 3 4 5
3 6 7 8
3 9 10 11
3 10 12 13
3 14 11 15
3 16 2 17
3 18 19 20
3 19 21 22
3 23 24 25
3 26 20 27
3 28 29 30
3 29 31 32
3 33 34 22
3 34 35 36
3 37 38 6
3 39 3 5
3 40 41 42
3 43 44 32
3 44 45 25
3 46 47 48
3 49 15 11
3 50 17 2
3 51 52 53
3 54 55 56
3 57 58 59
3 58 42 41
3 56 48 47
3 24 60 25
3 61 53 52
3 62 30 29
3 5 62 39
3 63 27 64
3 13 65 10
3 66 64 27
3 8 59 67
3 8 67 68
3 68 67 69
3 68 69 70
3 70 69 71
3 70 71 72
3 72 71 73
3 72 73 74
3 74 73 75
3 73 71 76
3 73 76 77
3 72 74 78
3 72 78 79
3 80 37 79
3 78 74 81
3 72 79 82
3 72 82 70
3 70 82 68
3 78 81 83
3 1 80 83
3 81 74 84
3 81 84 85
3 85 84 86
3 84 74 87
3 84 87 86
3 87 74 75
3 78 83 88
3 88 83 80
3 77 76 89
3 77 89 90
3 79 78 88
3 79 88 80
3 81 85 91
3 81 91 92
3 81 92 83
3 91 85 93
3 91 93 94
3 92 91 94
3 93 85 95
3 93 95 96
3 96 95 97
3 95 85 98
3 95 98 97
3 98 85 86
3 90 89 99
3 90 99 100
3 93 96 101
3 93 101 102
3 93 102 94
3 101 96 103
3 101 103 104
3 102 101 104
3 103 96 105
3 100 99 106
3 100 106 107
3 105 96 108
3 108 96 97
3 107 106 109
3 107 109 110
3 110 109 111
3 110 111 112
3 112 111 113
3 112 113 114
3 114 113 115
3 114 115 116
3 117 118 116
3 116 115 119
3 60 120 119
3 120 117 119
3 116 119 117
3 76 71 121
3 121 71 122
3 122 71 69
3 122 69 67
3 76 121 123
3 76 123 124
3 76 124 89
3 89 124 99
3 77 90 125
3 87 75 125
3 125 90 126
3 77 125 127
3 77 127 73
3 127 125 75
3 127 75 73
3 126 90 128
3 128 90 100
3 128 100 107
3 104 103 129
3 129 103 130
3 129 130 131
3 131 130 132
3 130 103 133
3 130 133 132
3 133 103 105
3 104 129 134
3 36 50 134
3 104 134 135
3 104 135 102
3 134 129 136
3 134 136 137
3 136 129 138
3 138 129 131
3 134 137 139
3 139 137 34
3 106 99 140
3 140 99 141
3 124 123 141
3 124 141 99
3 106 140 142
3 106 142 143
3 106 143 109
3 109 143 111
3 107 110 144
3 144 110 145
3 107 144 146
3 126 128 146
3 146 128 107
3 145 110 147
3 147 110 112
3 147 112 114
3 113 111 148
3 148 111 149
3 143 142 149
3 143 149 111
3 113 148 150
3 113 150 151
3 113 151 115
3 115 151 119
3 114 116 152
3 152 116 153
3 118 61 153
3 114 152 154
3 145 147 154
3 154 147 114
3 153 116 118
3 123 121 155
3 121 122 155
3 123 155 156
3 123 156 157
3 123 157 141
3 141 157 140
3 125 126 158
3 158 126 159
3 125 158 160
3 125 160 87
3 87 160 86
3 86 160 161
3 98 86 161
3 159 126 162
3 162 126 146
3 162 146 144
3 161 160 163
3 163 160 158
3 163 158 159
3 131 132 164
3 138 131 164
3 164 132 165
3 165 132 166
3 165 166 167
3 167 166 168
3 167 168 169
3 169 168 170
3 169 170 171
3 171 170 172
3 171 172 173
3 173 172 174
3 173 174 175
3 175 174 176
3 175 176 177
3 47 178 177
3 177 176 179
3 177 179 180
3 180 179 181
3 180 181 56
3 56 181 179
3 137 136 182
3 136 138 182
3 137 182 183
3 137 183 34
3 183 182 184
3 183 184 185
3 185 184 19
3 184 182 186
3 184 186 187
3 187 186 188
3 188 186 189
3 188 189 190
3 188 190 191
3 188 191 192
3 191 190 193
3 188 192 194
3 188 194 187
3 192 191 195
3 191 193 196
3 191 196 197
3 191 197 195
3 195 197 27
3 195 27 192
3 190 189 198
3 198 189 199
3 198 199 164
3 164 199 189
3 198 164 200
3 200 164 165
3 200 165 167
3 193 190 201
3 198 200 201
3 201 190 198
3 193 201 202
3 65 66 202
3 193 202 203
3 193 203 204
3 193 204 196
3 203 202 66
3 202 201 205
3 205 201 206
3 206 201 200
3 206 200 167
3 205 206 207
3 205 207 208
3 207 206 209
3 207 209 169
3 209 206 167
3 209 167 169
3 205 208 210
3 210 208 211
3 210 211 212
3 212 211 213
3 211 208 214
3 211 214 215
3 215 214 216
3 215 216 217
3 178 49 217
3 215 217 218
3 217 216 219
3 218 217 220
3 218 220 221
3 218 221 10
3 10 221 11
3 11 221 220
3 11 220 49
3 215 218 222
3 215 222 213
3 213 222 218
3 213 218 223
3 213 223 212
3 220 217 49
3 215 213 211
3 217 219 178
3 214 208 224
3 216 214 225
3 216 225 226
3 225 214 227
3 225 227 171
3 227 214 224
3 227 224 171
3 225 171 228
3 225 228 226
3 226 228 173
3 173 228 171
3 226 173 229
3 226 229 219
3 229 173 175
3 229 175 177
3 216 226 219
3 210 212 230
3 230 212 65
3 210 230 202
3 224 208 231
3 224 231 169
3 231 208 207
3 231 207 169
3 224 169 171
3 205 210 202
3 186 182 232
3 164 189 233
3 233 189 232
3 233 232 164
3 232 189 186
3 184 187 234
3 187 194 234
3 194 192 234
3 184 234 19
3 142 140 235
3 235 140 236
3 157 156 236
3 157 236 140
3 142 235 237
3 142 237 238
3 142 238 149
3 149 238 148
3 144 145 239
3 239 145 240
3 144 239 241
3 159 162 241
3 241 162 144
3 240 145 242
3 242 145 154
3 242 154 152
3 150 148 243
3 243 148 244
3 238 237 244
3 238 244 148
3 150 243 245
3 151 150 245
3 152 153 246
3 246 153 247
3 152 246 248
3 240 242 248
3 248 242 152
3 247 153 61
3 156 155 249
3 249 155 250
3 249 250 251
3 251 250 252
3 250 155 253
3 251 252 254
3 254 252 58
3 58 252 250
3 254 58 41
3 250 253 255
3 255 253 256
3 255 256 59
3 256 253 67
3 256 67 59
3 156 249 257
3 156 257 258
3 156 258 236
3 236 258 235
3 249 251 259
3 249 259 260
3 249 260 257
3 251 254 261
3 251 261 262
3 251 262 259
3 166 132 263
3 105 108 263
3 133 105 263
3 133 263 132
3 166 263 264
3 166 264 265
3 166 265 168
3 168 265 170
3 172 170 266
3 266 170 267
3 265 264 267
3 265 267 170
3 172 266 268
3 172 268 269
3 172 269 174
3 174 269 176
3 179 176 270
3 270 176 271
3 269 268 271
3 269 271 176
3 179 270 272
3 179 272 56
3 177 180 47
3 232 182 138
3 232 138 164
3 237 235 273
3 273 235 274
3 258 257 274
3 257 260 274
3 258 274 235
3 237 273 275
3 237 275 276
3 237 276 244
3 244 276 243
3 239 240 277
3 277 240 278
3 239 277 279
3 239 279 280
3 239 280 241
3 241 280 159
3 278 240 281
3 281 240 248
3 281 248 246
3 245 243 282
3 282 243 283
3 276 275 283
3 276 283 243
3 245 282 284
3 245 284 285
3 285 284 286
3 285 286 287
3 285 287 288
3 285 288 289
3 288 287 290
3 290 287 60
3 290 60 288
3 285 289 245
3 289 288 119
3 245 289 151
3 151 289 119
3 287 286 291
3 291 286 25
3 291 25 287
3 246 247 292
3 292 247 293
3 52 54 293
3 246 292 294
3 278 281 294
3 294 281 246
3 293 247 61
3 253 155 122
3 253 122 67
3 250 255 58
3 261 254 295
3 262 261 295
3 41 39 295
3 295 254 41
3 264 263 296
3 108 97 296
3 108 296 263
3 264 296 297
3 264 297 298
3 264 298 267
3 267 298 266
3 296 97 299
3 296 299 300
3 296 300 297
3 268 266 301
3 301 266 302
3 298 297 302
3 297 300 302
3 298 302 266
3 268 301 303
3 268 303 304
3 268 304 271
3 271 304 270
3 272 270 305
3 305 270 306
3 304 303 306
3 304 306 270
3 272 305 307
3 272 307 308
3 272 308 56
3 56 308 54
3 308 307 309
3 309 307 305
3 273 274 310
3 310 274 311
3 260 259 311
3 259 262 311
3 260 311 274
3 273 310 312
3 273 312 313
3 273 313 275
3 275 313 283
3 277 278 314
3 314 278 315
3 277 314 316
3 277 316 317
3 277 317 279
3 315 278 318
3 318 278 294
3 318 294 292
3 282 283 319
3 319 283 320
3 313 312 320
3 313 320 283
3 282 319 321
3 282 321 322
3 282 322 284
3 284 322 286
3 292 293 323
3 323 293 309
3 292 323 324
3 315 318 324
3 324 318 292
3 299 97 325
3 325 97 98
3 325 98 161
3 325 161 326
3 300 299 326
3 161 163 326
3 326 299 325
3 301 302 327
3 327 302 328
3 301 327 329
3 317 316 329
3 301 329 330
3 330 329 316
3 301 330 303
3 303 330 306
3 328 302 300
3 328 300 326
3 328 326 331
3 328 331 332
3 328 332 327
3 327 332 329
3 305 306 333
3 333 306 334
3 305 333 335
3 305 335 309
3 334 306 330
3 334 330 316
3 334 316 336
3 334 336 333
3 336 316 314
3 336 314 333
3 333 314 337
3 333 337 335
3 337 314 315
3 337 315 335
3 335 315 338
3 338 315 324
3 338 324 323
3 310 311 339
3 339 311 340
3 310 339 341
3 310 341 342
3 310 342 312
3 312 342 320
3 340 311 262
3 340 262 295
3 319 320 343
3 343 320 344
3 342 341 344
3 342 344 320
3 319 343 345
3 319 345 346
3 319 346 321
3 331 326 347
3 347 326 163
3 347 163 159
3 347 159 348
3 280 279 348
3 332 331 348
3 279 317 348
3 280 348 159
3 348 331 347
3 339 340 349
3 349 340 350
3 339 349 351
3 339 351 352
3 339 352 341
3 341 352 344
3 350 340 295
3 350 295 39
3 343 344 353
3 353 344 354
3 352 351 354
3 352 354 344
3 343 353 355
3 343 355 356
3 343 356 345
3 349 350 357
3 357 350 39
3 349 357 358
3 349 358 359
3 349 359 351
3 351 359 354
3 353 354 360
3 360 354 361
3 359 358 361
3 359 361 354
3 353 360 362
3 353 362 363
3 363 362 29
3 353 363 355
3 358 357 364
3 364 357 39
3 358 364 361
3 360 361 365
3 365 361 366
3 360 365 367
3 360 367 362
3 362 367 29
3 29 367 365
3 366 361 364
3 365 366 62
3 62 366 364
3 365 62 29
3 119 288 60
3 8 68 6
3 255 59 58
3 60 287 25
3 202 230 65
3 34 183 185
3 27 197 368
3 204 203 368
3 197 196 368
3 196 204 368
3 223 218 10
3 308 309 54
3 135 134 50
3 134 139 36
3 36 139 34
3 6 68 369
3 82 79 369
3 82 369 68
3 6 369 370
3 370 369 79
3 6 370 37
3 370 79 37
3 293 61 52
3 364 39 62
3 19 234 371
3 19 371 20
3 20 371 192
3 192 371 234
3 219 229 372
3 219 372 373
3 373 372 177
3 219 373 178
3 177 372 229
3 178 373 177
3 92 94 374
3 2 1 374
3 2 374 94
3 374 1 83
3 374 83 92
3 317 329 375
3 375 329 332
3 375 332 348
3 375 348 317
3 338 323 335
3 286 322 376
3 376 322 377
3 322 321 377
3 346 345 377
3 377 345 356
3 356 355 377
3 346 377 321
3 377 355 378
3 355 363 378
3 377 378 379
3 377 379 376
3 376 379 44
3 44 379 378
3 376 44 380
3 376 380 286
3 380 44 25
3 380 25 286
3 378 363 381
3 378 381 32
3 378 32 44
3 32 381 29
3 381 363 29
3 47 180 56
3 368 203 66
3 135 50 382
3 135 382 383
3 94 102 383
3 383 102 135
3 94 383 382
3 94 382 2
3 2 382 50
3 185 19 22
3 65 212 384
3 223 10 384
3 223 384 212
3 65 384 10
3 323 309 335
3 20 192 27
3 22 34 185
3 368 66 27
3 309 293 54
