# vtk DataFile Version 3.0
AFM mesh VTK export
ASCII
DATASET POLYDATA
POINTS 65 float
128.5000000000 48.0000000000 0.0
155.3333333333 48.0000000000 0.0
144.6749773991 70.4188602619 0.0
182.1666666667 48.0000000000 0.0
209.0000000000 48.0000000000 0.0
191.6425170682 70.1077123026 0.0
209.0000000000 128.5000000000 0.0
209.0000000000 155.3333333333 0.0
194.3078286268 143.1082655401 0.0
209.0000000000 182.1666666667 0.0
209.0000000000 209.0000000000 0.0
186.9315614990 188.1439261718 0.0
182.1666666667 209.0000000000 0.0
155.3333333333 209.0000000000 0.0
168.9010500595 193.5084007769 0.0
74.8333333333 209.0000000000 0.0
48.0000000000 209.0000000000 0.0
59.8819186641 193.8985967923 0.0
48.0000000000 182.1666666667 0.0
48.0000000000 155.3333333333 0.0
68.6637943677 175.4739427601 0.0
48.0000000000 74.8333333333 0.0
48.0000000000 48.0000000000 0.0
72.7704398640 63.0855322623 0.0
116.8419027748 78.3466483309 0.0
170.6110611234 68.0093272403 0.0
181.4484435030 62.0358698615 0.0
209.0000000000 74.8333333333 0.0
209.0000000000 101.6666666667 0.0
66.4364865386 148.8000849012 0.0
90.4488447110 154.4401198681 0.0
92.9210106765 184.9386461063 0.0
114.8855884726 172.2882907490 0.0
116.8107305701 139.6543945609 0.0
139.4240201147 158.5672644796 0.0
96.3529635297 130.1059163687 0.0
76.9692089913 130.5190041658 0.0
48.0000000000 128.5000000000 0.0
139.4928715033 186.1644753959 0.0
118.2899271648 193.1925613841 0.0
106.9483912656 189.7887585364 0.0
101.6666666667 209.0000000000 0.0
128.5000000000 209.0000000000 0.0
163.5877902045 171.6207835355 0.0
146.8018737632 131.4656811842 0.0
123.3433361933 110.4286825981 0.0
106.7876956279 121.2387526265 0.0
147.7966542773 106.7924541314 0.0
172.3961261922 112.1744881141 0.0
173.2052982715 142.5779518568 0.0
191.4938003981 125.5592933988 0.0
155.6002292346 150.9357888412 0.0
158.9122876926 89.3809702734 0.0
180.4406404431 88.2400471564 0.0
138.2113524250 90.9917565240 0.0
156.7614030290 190.0148743621 0.0
73.0984868531 84.0926942141 0.0
74.8333333333 48.0000000000 0.0
101.6666666667 48.0000000000 0.0
189.2567725560 163.7737550177 0.0
62.9302883753 101.7703286550 0.0
48.0000000000 101.6666666667 0.0
91.0206238618 75.7153444188 0.0
90.7720428231 105.3128197996 0.0
69.6775729367 116.4596168696 0.0
POLYGONS 104 416
3 0 1 2
3 3 4 5
3 6 7 8
3 9 10 11
3 12 13 14
3 15 16 17
3 18 19 20
3 21 22 23
3 0 2 24
3 2 1 25
3 3 5 26
3 3 26 25
3 25 26 5
3 5 4 27
3 5 27 28
3 18 20 17
3 18 17 16
3 17 20 15
3 20 19 29
3 20 29 30
3 20 30 31
3 31 30 32
3 20 31 15
3 32 30 33
3 32 33 34
3 33 30 35
3 35 30 36
3 36 30 29
3 36 29 37
3 32 34 38
3 32 38 39
3 32 39 40
3 40 39 41
3 40 41 31
3 40 31 32
3 41 39 42
3 42 39 38
3 38 34 43
3 34 33 44
3 44 33 45
3 45 33 46
3 46 33 35
3 44 45 47
3 44 47 48
3 44 48 49
3 49 48 50
3 50 48 28
3 44 49 51
3 51 49 43
3 44 51 34
3 34 51 43
3 48 47 52
3 48 52 53
3 53 52 25
3 25 52 2
3 52 47 54
3 54 47 45
3 52 54 2
3 2 54 24
3 24 54 45
3 38 43 55
3 38 55 13
3 13 55 14
3 14 55 43
3 14 43 11
3 14 11 12
3 12 11 10
3 29 19 37
3 21 23 56
3 23 22 57
3 23 57 58
3 25 1 3
3 43 49 59
3 43 59 11
3 21 56 60
3 21 60 61
3 61 60 37
3 56 23 62
3 56 62 63
3 45 46 63
3 35 36 63
3 46 35 63
3 60 56 63
3 62 23 58
3 63 62 24
3 24 62 58
3 0 24 58
3 6 8 50
3 50 8 49
3 49 8 59
3 59 8 7
3 59 7 9
3 6 50 28
3 9 11 59
3 45 63 24
3 13 42 38
3 41 15 31
3 25 5 53
3 53 5 28
3 53 28 48
3 36 37 64
3 64 37 60
3 64 60 63
3 64 63 36
