# AFM mesh OBJ export
v 128.5000000000 48.0000000000 0.0
v 155.3333333333 48.0000000000 0.0
v 144.6749773991 70.4188602619 0.0
v 182.1666666667 48.0000000000 0.0
v 209.0000000000 48.0000000000 0.0
v 191.6425170682 70.1077123026 0.0
v 209.0000000000 128.5000000000 0.0
v 209.0000000000 155.3333333333 0.0
v 194.3078286268 143.1082655401 0.0
v 209.0000000000 182.1666666667 0.0
v 209.0000000000 209.0000000000 0.0
v 186.9315614990 188.1439261718 0.0
v 182.1666666667 209.0000000000 0.0
v 155.3333333333 209.0000000000 0.0
v 168.9010500595 193.5084007769 0.0
v 74.8333333333 209.0000000000 0.0
v 48.0000000000 209.0000000000 0.0
v 59.8819186641 193.8985967923 0.0
v 48.0000000000 182.1666666667 0.0
v 48.0000000000 155.3333333333 0.0
v 68.6637943677 175.4739427601 0.0
v 48.0000000000 74.8333333333 0.0
v 48.0000000000 48.0000000000 0.0
v 72.7704398640 63.0855322623 0.0
v 116.8419027748 78.3466483309 0.0
v 170.6110611234 68.0093272403 0.0
v 181.4484435030 62.0358698615 0.0
v 209.0000000000 74.8333333333 0.0
v 209.0000000000 101.6666666667 0.0
v 66.4364865386 148.8000849012 0.0
v 90.4488447110 154.4401198681 0.0
v 92.9210106765 184.9386461063 0.0
v 114.8855884726 172.2882907490 0.0
v 116.8107305701 139.6543945609 0.0
v 139.4240201147 158.5672644796 0.0
v 96.3529635297 130.1059163687 0.0
v 76.9692089913 130.5190041658 0.0
v 48.0000000000 128.5000000000 0.0
v 139.4928715033 186.1644753959 0.0
v 118.2899271648 193.1925613841 0.0
v 106.9483912656 189.7887585364 0.0
v 101.6666666667 209.0000000000 0.0
v 128.5000000000 209.0000000000 0.0
v 163.5877902045 171.6207835355 0.0
v 146.8018737632 131.4656811842 0.0
v 123.3433361933 110.4286825981 0.0
v 106.7876956279 121.2387526265 0.0
v 147.7966542773 106.7924541314 0.0
v 172.3961261922 112.1744881141 0.0
v 173.2052982715 142.5779518568 0.0
v 191.4938003981 125.5592933988 0.0
v 155.6002292346 150.9357888412 0.0
v 158.9122876926 89.3809702734 0.0
v 180.4406404431 88.2400471564 0.0
v 138.2113524250 90.9917565240 0.0
v 156.7614030290 190.0148743621 0.0
v 73.0984868531 84.0926942141 0.0
v 74.8333333333 48.0000000000 0.0
v 101.6666666667 48.0000000000 0.0
v 189.2567725560 163.7737550177 0.0
v 62.9302883753 101.7703286550 0.0
v 48.0000000000 101.6666666667 0.0
v 91.0206238618 75.7153444188 0.0
v 90.7720428231 105.3128197996 0.0
v 69.6775729367 116.4596168696 0.0
f 1 2 3
f 4 5 6
f 7 8 9
f 10 11 12
f 13 14 15
f 16 17 18
f 19 20 21
f 22 23 24
f 1 3 25
f 3 2 26
f 4 6 27
f 4 27 26
f 26 27 6
f 6 5 28
f 6 28 29
f 19 21 18
f 19 18 17
f 18 21 16
f 21 20 30
f 21 30 31
f 21 31 32
f 32 31 33
f 21 32 16
f 33 31 34
f 33 34 35
f 34 31 36
f 36 31 37
f 37 31 30
f 37 30 38
f 33 35 39
f 33 39 40
f 33 40 41
f 41 40 42
f 41 42 32
f 41 32 33
f 42 40 43
f 43 40 39
f 39 35 44
f 35 34 45
f 45 34 46
f 46 34 47
f 47 34 36
f 45 46 48
f 45 48 49
f 45 49 50
f 50 49 51
f 51 49 29
f 45 50 52
f 52 50 44
f 45 52 35
f 35 52 44
f 49 48 53
f 49 53 54
f 54 53 26
f 26 53 3
f 53 48 55
f 55 48 46
f 53 55 3
f 3 55 25
f 25 55 46
f 39 44 56
f 39 56 14
f 14 56 15
f 15 56 44
f 15 44 12
f 15 12 13
f 13 12 11
f 30 20 38
f 22 24 57
f 24 23 58
f 24 58 59
f 26 2 4
f 44 50 60
f 44 60 12
f 22 57 61
f 22 61 62
f 62 61 38
f 57 24 63
f 57 63 64
f 46 47 64
f 36 37 64
f 47 36 64
f 61 57 64
f 63 24 59
f 64 63 25
f 25 63 59
f 1 25 59
f 7 9 51
f 51 9 50
f 50 9 60
f 60 9 8
f 60 8 10
f 7 51 29
f 10 12 60
f 46 64 25
f 14 43 39
f 42 16 32
f 26 6 54
f 54 6 29
f 54 29 49
f 37 38 65
f 65 38 61
f 65 61 64
f 65 64 37
