# AFM mesh OBJ export
v 326.6000000000 186.4000000000 0.0
v 355.2000000000 186.8000000000 0.0
v 372.6000000000 240.2000000000 0.0
v 383.8000000000 187.2000000000 0.0
v 412.4000000000 187.6000000000 0.0
v 418.2000000000 205.4000000000 0.0
v 441.0000000000 188.0000000000 0.0
v 60.0000000000 188.0000000000 0.0
v 88.6000000000 187.6000000000 0.0
v 82.8000000000 205.4000000000 0.0
v 117.2000000000 187.2000000000 0.0
v 145.8000000000 186.8000000000 0.0
v 174.4000000000 186.4000000000 0.0
v 128.4000000000 240.2000000000 0.0
v 105.6000000000 222.8000000000 0.0
v 395.4000000000 222.8000000000 0.0
v 151.2000000000 257.6000000000 0.0
v 349.8000000000 257.6000000000 0.0
v 345.4000000000 396.6000000000 0.0
v 321.8000000000 380.2000000000 0.0
v 360.6000000000 385.4000000000 0.0
v 369.0000000000 413.0000000000 0.0
v 298.2000000000 363.8000000000 0.0
v 274.6000000000 347.4000000000 0.0
v 343.8000000000 330.2000000000 0.0
v 352.2000000000 357.8000000000 0.0
v 221.8000000000 131.6000000000 0.0
v 231.2000000000 104.4000000000 0.0
v 269.2000000000 104.4000000000 0.0
v 240.6000000000 77.2000000000 0.0
v 250.0000000000 50.0000000000 0.0
v 259.6000000000 77.2000000000 0.0
v 212.4000000000 158.8000000000 0.0
v 278.8000000000 131.6000000000 0.0
v 140.4000000000 385.4000000000 0.0
v 148.8000000000 357.8000000000 0.0
v 155.8000000000 396.6000000000 0.0
v 132.0000000000 413.0000000000 0.0
v 157.2000000000 330.2000000000 0.0
v 165.6000000000 302.6000000000 0.0
v 203.4000000000 363.8000000000 0.0
v 335.4000000000 302.6000000000 0.0
v 179.6000000000 380.2000000000 0.0
v 261.5688186214 196.1796664511 0.0
v 298.0000000000 186.0000000000 0.0
v 203.0000000000 186.0000000000 0.0
v 288.4000000000 158.8000000000 0.0
v 302.9618876508 255.3310276481 0.0
v 327.0000000000 275.0000000000 0.0
v 244.9592092309 268.0210548069 0.0
v 275.1295753550 302.0630866177 0.0
v 251.0000000000 331.0000000000 0.0
v 241.5063310800 308.6976791899 0.0
v 227.2000000000 347.4000000000 0.0
v 198.7290889080 235.1900320991 0.0
v 174.0000000000 275.0000000000 0.0
v 174.7969188655 226.3559806557 0.0
v 205.5463149545 286.6665183050 0.0
v 204.7299946060 322.2702307216 0.0
v 221.6169253172 311.4734557242 0.0
v 228.5516791909 293.4256670364 0.0
f 1 2 3
f 4 5 6
f 6 5 7
f 8 9 10
f 10 9 11
f 12 13 14
f 11 12 15
f 2 4 16
f 16 3 2
f 14 15 12
f 17 14 13
f 6 16 4
f 3 18 1
f 15 10 11
f 19 20 21
f 19 21 22
f 23 24 25
f 20 23 26
f 27 28 29
f 30 31 32
f 30 32 28
f 33 27 34
f 32 29 28
f 29 34 27
f 35 36 37
f 35 37 38
f 39 40 41
f 42 25 24
f 26 21 20
f 25 26 23
f 36 39 43
f 41 43 39
f 43 37 36
f 33 34 44
f 45 1 44
f 46 33 44
f 47 45 44
f 34 47 44
f 44 1 48
f 18 49 48
f 49 42 48
f 18 48 1
f 44 48 50
f 50 48 51
f 24 52 51
f 24 51 42
f 42 51 48
f 51 52 53
f 52 54 53
f 51 53 50
f 44 50 55
f 13 46 55
f 56 17 55
f 55 46 44
f 13 55 57
f 57 55 17
f 13 57 17
f 55 50 58
f 40 56 58
f 40 58 59
f 54 41 59
f 54 59 60
f 60 59 58
f 54 60 53
f 40 59 41
f 60 58 61
f 50 53 61
f 61 53 60
f 61 58 50
f 55 58 56
