ply
format ascii 1.0
element vertex 61
property float x
property float y
property float z
element face 70
property list uchar int vertex_indices
end_header
326.6000000000 186.4000000000 0.0
355.2000000000 186.8000000000 0.0
372.6000000000 240.2000000000 0.0
383.8000000000 187.2000000000 0.0
412.4000000000 187.6000000000 0.0
418.2000000000 205.4000000000 0.0
441.0000000000 188.0000000000 0.0
60.0000000000 188.0000000000 0.0
88.6000000000 187.6000000000 0.0
82.8000000000 205.4000000000 0.0
117.2000000000 187.2000000000 0.0
145.8000000000 186.8000000000 0.0
174.4000000000 186.4000000000 0.0
128.4000000000 240.2000000000 0.0
105.6000000000 222.8000000000 0.0
395.4000000000 222.8000000000 0.0
151.2000000000 257.6000000000 0.0
349.8000000000 257.6000000000 0.0
345.4000000000 396.6000000000 0.0
321.8000000000 380.2000000000 0.0
360.6000000000 385.4000000000 0.0
369.0000000000 413.0000000000 0.0
298.2000000000 363.8000000000 0.0
274.6000000000 347.4000000000 0.0
343.8000000000 330.2000000000 0.0
352.2000000000 357.8000000000 0.0
221.8000000000 131.6000000000 0.0
231.2000000000 104.4000000000 0.0
269.2000000000 104.4000000000 0.0
240.6000000000 77.2000000000 0.0
250.0000000000 50.0000000000 0.0
259.6000000000 77.2000000000 0.0
212.4000000000 158.8000000000 0.0
278.8000000000 131.6000000000 0.0
140.4000000000 385.4000000000 0.0
148.8000000000 357.8000000000 0.0
155.8000000000 396.6000000000 0.0
132.0000000000 413.0000000000 0.0
157.2000000000 330.2000000000 0.0
165.6000000000 302.6000000000 0.0
203.4000000000 363.8000000000 0.0
335.4000000000 302.6000000000 0.0
179.6000000000 380.2000000000 0.0
261.5688186214 196.1796664511 0.0
298.0000000000 186.0000000000 0.0
203.0000000000 186.0000000000 0.0
288.4000000000 158.8000000000 0.0
302.9618876508 255.3310276481 0.0
327.0000000000 275.0000000000 0.0
244.9592092309 268.0210548069 0.0
275.1295753550 302.0630866177 0.0
251.0000000000 331.0000000000 0.0
241.5063310800 308.6976791899 0.0
227.2000000000 347.4000000000 0.0
198.7290889080 235.1900320991 0.0
174.0000000000 275.0000000000 0.0
174.7969188655 226.3559806557 0.0
205.5463149545 286.6665183050 0.0
204.7299946060 322.2702307216 0.0
221.6169253172 311.4734557242 0.0
228.5516791909 293.4256670364 0.0
3 0 1 2
3 3 4 5
3 5 4 6
3 7 8 9
3 9 8 10
3 11 12 13
3 10 11 14
3 1 3 15
3 15 2 1
3 13 14 11
3 16 13 12
3 5 15 3
3 2 17 0
3 14 9 10
3 18 19 20
3 18 20 21
3 22 23 24
3 19 22 25
3 26 27 28
3 29 30 31
3 29 31 27
3 32 26 33
3 31 28 27
3 28 33 26
3 34 35 36
3 34 36 37
3 38 39 40
3 41 24 23
3 25 20 19
3 24 25 22
3 35 38 42
3 40 42 38
3 42 36 35
3 32 33 43
3 44 0 43
3 45 32 43
3 46 44 43
3 33 46 43
3 43 0 47
3 17 48 47
3 48 41 47
3 17 47 0
3 43 47 49
3 49 47 50
3 23 51 50
3 23 50 41
3 41 50 47
3 50 51 52
3 51 53 52
3 50 52 49
3 43 49 54
3 12 45 54
3 55 16 54
3 54 45 43
3 12 54 56
3 56 54 16
3 12 56 16
3 54 49 57
3 39 55 57
3 39 57 58
3 53 40 58
3 53 58 59
3 59 58 57
3 53 59 52
3 39 58 40
3 59 57 60
3 49 52 60
3 60 52 59
3 60 57 49
3 54 57 55
