# vtk DataFile Version 3.0
AFM mesh VTK export
ASCII
DATASET POLYDATA
POINTS 92 float
100.0000000000 80.0000000000 0.0
127.0000000000 80.0000000000 0.0
100.0000000000 114.1000000000 0.0
154.0000000000 80.0000000000 0.0
181.0000000000 112.5000000000 0.0
181.0000000000 80.0000000000 0.0
320.0000000000 80.0000000000 0.0
347.0000000000 80.0000000000 0.0
320.0000000000 112.5000000000 0.0
374.0000000000 80.0000000000 0.0
401.0000000000 80.0000000000 0.0
401.0000000000 114.1000000000 0.0
181.0000000000 145.0000000000 0.0
181.0000000000 307.5000000000 0.0
181.0000000000 340.0000000000 0.0
100.0000000000 318.7000000000 0.0
320.0000000000 340.0000000000 0.0
320.0000000000 307.5000000000 0.0
401.0000000000 318.7000000000 0.0
320.0000000000 145.0000000000 0.0
334.1111111111 421.0000000000 0.0
300.6666666667 421.0000000000 0.0
307.5411852293 374.8709502377 0.0
264.4000000000 340.0000000000 0.0
292.2000000000 340.0000000000 0.0
343.9127915137 390.1199520454 0.0
367.0560374826 405.2961812525 0.0
367.5555555556 421.0000000000 0.0
401.0000000000 421.0000000000 0.0
340.0437526119 369.1641788665 0.0
370.8389107692 380.4275232089 0.0
357.9641518649 360.5708937511 0.0
401.0000000000 352.8000000000 0.0
264.9569422867 377.7583636953 0.0
236.6000000000 340.0000000000 0.0
262.0002360032 406.3030645894 0.0
267.2222222222 421.0000000000 0.0
233.7777777778 421.0000000000 0.0
200.3333333333 421.0000000000 0.0
215.0560069709 376.7692132768 0.0
208.8000000000 340.0000000000 0.0
166.8888888889 421.0000000000 0.0
133.4444444444 421.0000000000 0.0
147.9310708812 396.0038958751 0.0
176.4700575494 390.0905058260 0.0
163.7937965385 402.3254084835 0.0
160.1051300853 373.7254551717 0.0
243.2148845121 390.6620154647 0.0
121.5133734350 402.6696360996 0.0
100.0000000000 421.0000000000 0.0
134.8945610121 368.9836519604 0.0
126.1110088966 388.5936615082 0.0
100.0000000000 386.9000000000 0.0
240.0102541405 371.3256096936 0.0
401.0000000000 284.6000000000 0.0
360.8604926443 275.6038033838 0.0
401.0000000000 250.5000000000 0.0
320.0000000000 275.0000000000 0.0
320.0000000000 242.5000000000 0.0
401.0000000000 386.9000000000 0.0
384.9669959057 398.3825322914 0.0
100.0000000000 352.8000000000 0.0
100.0000000000 284.6000000000 0.0
140.7238433011 275.0445957433 0.0
100.0000000000 250.5000000000 0.0
181.0000000000 242.5000000000 0.0
181.0000000000 275.0000000000 0.0
401.0000000000 148.2000000000 0.0
360.0621258267 145.7088201011 0.0
320.0000000000 210.0000000000 0.0
320.0000000000 177.5000000000 0.0
401.0000000000 182.3000000000 0.0
401.0000000000 216.4000000000 0.0
365.9851858251 205.7673150977 0.0
370.2038172220 233.1166863482 0.0
100.0000000000 216.4000000000 0.0
146.5700374145 217.9714165373 0.0
181.0000000000 177.5000000000 0.0
181.0000000000 210.0000000000 0.0
100.0000000000 182.3000000000 0.0
140.9346085574 182.3725701569 0.0
378.3552740603 113.2679947744 0.0
366.1216043296 177.6226343886 0.0
383.5331320123 178.4661175253 0.0
363.0189285042 250.4286488210 0.0
142.0725215355 246.5061611255 0.0
137.0623818542 155.0160479579 0.0
114.4185279958 146.0683698685 0.0
100.0000000000 148.2000000000 0.0
128.9820049037 345.1063988091 0.0
135.0732232480 130.6469293191 0.0
151.0308799930 143.5806164475 0.0
POLYGONS 126 504
3 0 1 2
3 1 3 4
3 3 5 4
3 6 7 8
3 7 9 8
3 9 10 11
3 4 12 1
3 13 14 15
3 16 17 18
3 19 8 9
3 20 21 22
3 23 24 22
3 24 16 22
3 20 22 25
3 20 25 26
3 20 26 27
3 27 26 28
3 25 22 29
3 25 29 30
3 26 25 30
3 30 29 31
3 31 29 16
3 30 31 32
3 16 29 22
3 31 16 32
3 22 21 33
3 34 23 33
3 22 33 23
3 33 21 35
3 35 21 36
3 35 36 37
3 37 38 39
3 40 34 39
3 14 40 39
3 41 42 43
3 39 38 44
3 41 43 45
3 41 45 44
3 44 45 43
3 39 44 14
3 44 43 46
3 44 46 14
3 37 39 47
3 33 35 47
3 47 35 37
3 43 42 48
3 48 42 49
3 44 38 41
3 46 43 50
3 14 46 50
3 43 48 51
3 51 48 52
3 52 48 49
3 51 52 50
3 51 50 43
3 47 39 53
3 47 53 33
3 53 39 34
3 53 34 33
3 54 18 55
3 54 55 56
3 17 57 55
3 57 58 55
3 59 28 60
3 59 60 30
3 60 28 26
3 60 26 30
3 52 61 50
3 15 62 63
3 63 62 64
3 65 66 63
3 66 13 63
3 11 67 68
3 69 70 68
3 70 19 68
3 71 72 73
3 58 69 73
3 72 56 74
3 64 75 76
3 77 78 76
3 78 65 76
3 75 79 80
3 12 77 80
3 11 68 81
3 81 68 9
3 11 81 9
3 73 72 74
3 73 74 58
3 76 75 80
3 76 80 77
3 68 67 82
3 68 82 69
3 82 67 83
3 82 83 73
3 83 67 71
3 83 71 73
3 74 56 84
3 64 76 85
3 80 79 86
3 80 86 12
3 86 79 87
3 87 79 88
3 87 88 2
3 84 56 55
3 84 55 58
3 64 85 63
3 63 85 65
3 18 32 16
3 32 59 30
3 61 15 89
3 61 89 50
3 74 84 58
3 85 76 65
3 82 73 69
3 55 18 17
3 15 63 13
3 89 15 14
3 2 1 90
3 86 87 90
3 90 87 2
3 86 90 91
3 91 90 12
3 91 12 86
3 12 90 1
3 9 68 19
3 89 14 50
