# AFM mesh OBJ export
v 100.0000000000 80.0000000000 0.0
v 127.0000000000 80.0000000000 0.0
v 100.0000000000 114.1000000000 0.0
v 154.0000000000 80.0000000000 0.0
v 181.0000000000 112.5000000000 0.0
v 181.0000000000 80.0000000000 0.0
v 320.0000000000 80.0000000000 0.0
v 347.0000000000 80.0000000000 0.0
v 320.0000000000 112.5000000000 0.0
v 374.0000000000 80.0000000000 0.0
v 401.0000000000 80.0000000000 0.0
v 401.0000000000 114.1000000000 0.0
v 181.0000000000 145.0000000000 0.0
v 181.0000000000 307.5000000000 0.0
v 181.0000000000 340.0000000000 0.0
v 100.0000000000 318.7000000000 0.0
v 320.0000000000 340.0000000000 0.0
v 320.0000000000 307.5000000000 0.0
v 401.0000000000 318.7000000000 0.0
v 320.0000000000 145.0000000000 0.0
v 334.1111111111 421.0000000000 0.0
v 300.6666666667 421.0000000000 0.0
v 307.5411852293 374.8709502377 0.0
v 264.4000000000 340.0000000000 0.0
v 292.2000000000 340.0000000000 0.0
v 343.9127915137 390.1199520454 0.0
v 367.0560374826 405.2961812525 0.0
v 367.5555555556 421.0000000000 0.0
v 401.0000000000 421.0000000000 0.0
v 340.0437526119 369.1641788665 0.0
v 370.8389107692 380.4275232089 0.0
v 357.9641518649 360.5708937511 0.0
v 401.0000000000 352.8000000000 0.0
v 264.9569422867 377.7583636953 0.0
v 236.6000000000 340.0000000000 0.0
v 262.0002360032 406.3030645894 0.0
v 267.2222222222 421.0000000000 0.0
v 233.7777777778 421.0000000000 0.0
v 200.3333333333 421.0000000000 0.0
v 215.0560069709 376.7692132768 0.0
v 208.8000000000 340.0000000000 0.0
v 166.8888888889 421.0000000000 0.0
v 133.4444444444 421.0000000000 0.0
v 147.9310708812 396.0038958751 0.0
v 176.4700575494 390.0905058260 0.0
v 163.7937965385 402.3254084835 0.0
v 160.1051300853 373.7254551717 0.0
v 243.2148845121 390.6620154647 0.0
v 121.5133734350 402.6696360996 0.0
v 100.0000000000 421.0000000000 0.0
v 134.8945610121 368.9836519604 0.0
v 126.1110088966 388.5936615082 0.0
v 100.0000000000 386.9000000000 0.0
v 240.0102541405 371.3256096936 0.0
v 401.0000000000 284.6000000000 0.0
v 360.8604926443 275.6038033838 0.0
v 401.0000000000 250.5000000000 0.0
v 320.0000000000 275.0000000000 0.0
v 320.0000000000 242.5000000000 0.0
v 401.0000000000 386.9000000000 0.0
v 384.9669959057 398.3825322914 0.0
v 100.0000000000 352.8000000000 0.0
v 100.0000000000 284.6000000000 0.0
v 140.7238433011 275.0445957433 0.0
v 100.0000000000 250.5000000000 0.0
v 181.0000000000 242.5000000000 0.0
v 181.0000000000 275.0000000000 0.0
v 401.0000000000 148.2000000000 0.0
v 360.0621258267 145.7088201011 0.0
v 320.0000000000 210.0000000000 0.0
v 320.0000000000 177.5000000000 0.0
v 401.0000000000 182.3000000000 0.0
v 401.0000000000 216.4000000000 0.0
v 365.9851858251 205.7673150977 0.0
v 370.2038172220 233.1166863482 0.0
v 100.0000000000 216.4000000000 0.0
v 146.5700374145 217.9714165373 0.0
v 181.0000000000 177.5000000000 0.0
v 181.0000000000 210.0000000000 0.0
v 100.0000000000 182.3000000000 0.0
v 140.9346085574 182.3725701569 0.0
v 378.3552740603 113.2679947744 0.0
v 366.1216043296 177.6226343886 0.0
v 383.5331320123 178.4661175253 0.0
v 363.0189285042 250.4286488210 0.0
v 142.0725215355 246.5061611255 0.0
v 137.0623818542 155.0160479579 0.0
v 114.4185279958 146.0683698685 0.0
v 100.0000000000 148.2000000000 0.0
v 128.9820049037 345.1063988091 0.0
v 135.0732232480 130.6469293191 0.0
v 151.0308799930 143.5806164475 0.0
f 1 2 3
f 2 4 5
f 4 6 5
f 7 8 9
f 8 10 9
f 10 11 12
f 5 13 2
f 14 15 16
f 17 18 19
f 20 9 10
f 21 22 23
f 24 25 23
f 25 17 23
f 21 23 26
f 21 26 27
f 21 27 28
f 28 27 29
f 26 23 30
f 26 30 31
f 27 26 31
f 31 30 32
f 32 30 17
f 31 32 33
f 17 30 23
f 32 17 33
f 23 22 34
f 35 24 34
f 23 34 24
f 34 22 36
f 36 22 37
f 36 37 38
f 38 39 40
f 41 35 40
f 15 41 40
f 42 43 44
f 40 39 45
f 42 44 46
f 42 46 45
f 45 46 44
f 40 45 15
f 45 44 47
f 45 47 15
f 38 40 48
f 34 36 48
f 48 36 38
f 44 43 49
f 49 43 50
f 45 39 42
f 47 44 51
f 15 47 51
f 44 49 52
f 52 49 53
f 53 49 50
f 52 53 51
f 52 51 44
f 48 40 54
f 48 54 34
f 54 40 35
f 54 35 34
f 55 19 56
f 55 56 57
f 18 58 56
f 58 59 56
f 60 29 61
f 60 61 31
f 61 29 27
f 61 27 31
f 53 62 51
f 16 63 64
f 64 63 65
f 66 67 64
f 67 14 64
f 12 68 69
f 70 71 69
f 71 20 69
f 72 73 74
f 59 70 74
f 73 57 75
f 65 76 77
f 78 79 77
f 79 66 77
f 76 80 81
f 13 78 81
f 12 69 82
f 82 69 10
f 12 82 10
f 74 73 75
f 74 75 59
f 77 76 81
f 77 81 78
f 69 68 83
f 69 83 70
f 83 68 84
f 83 84 74
f 84 68 72
f 84 72 74
f 75 57 85
f 65 77 86
f 81 80 87
f 81 87 13
f 87 80 88
f 88 80 89
f 88 89 3
f 85 57 56
f 85 56 59
f 65 86 64
f 64 86 66
f 19 33 17
f 33 60 31
f 62 16 90
f 62 90 51
f 75 85 59
f 86 77 66
f 83 74 70
f 56 19 18
f 16 64 14
f 90 16 15
f 3 2 91
f 87 88 91
f 91 88 3
f 87 91 92
f 92 91 13
f 92 13 87
f 13 91 2
f 10 69 20
f 90 15 51
